<?xml version="1.0" encoding="utf-8"?>
<!-- Generator: Adobe Illustrator 27.5.0, SVG Export Plug-In . SVG Version: 6.00 Build 0)  -->
<svg version="1.1" xmlns="http://www.w3.org/2000/svg" xmlns:xlink="http://www.w3.org/1999/xlink" x="0px" y="0px"
	 viewBox="0 0 500 500" style="enable-background:new 0 0 500 500;" xml:space="preserve">
<g id="BACKGROUND">
	<rect x="-0.64" y="-0.278" style="fill:#FFFFFF;" width="500.667" height="500.271"/>
</g>
<g id="OBJECTS">
	
		<ellipse transform="matrix(0.7071 -0.7071 0.7071 0.7071 -104.8243 246.0238)" style="fill:#E3F4FC;" cx="244.565" cy="249.546" rx="190.491" ry="190.491"/>
	<g>
		<path style="fill:none;stroke:#BD64AC;stroke-width:2;stroke-miterlimit:10;" d="M326.07,147.178
			c-25.33,25.33-63.432-12.772-88.762,12.558c-25.329,25.329,12.773,63.431-12.557,88.76
			c-25.333,25.333-63.435-12.769-88.768,12.564c-25.333,25.333,12.769,63.435-12.564,88.768"/>
		<path style="fill:none;stroke:#232F63;stroke-width:2;stroke-miterlimit:10;" d="M85.318,311.726
			c25.33-25.33,63.432,12.772,88.762-12.558c25.329-25.329-12.773-63.431,12.557-88.76c25.333-25.333,63.435,12.769,88.768-12.564
			s-12.769-63.435,12.564-88.768"/>
		<g>
			<line style="fill:none;stroke:#232F63;stroke-miterlimit:10;" x1="164.791" y1="259.896" x2="174.877" y2="269.982"/>
			<line style="fill:none;stroke:#BD64AC;stroke-miterlimit:10;" x1="134.533" y1="290.153" x2="144.619" y2="300.239"/>
			<line style="fill:none;stroke:#232F63;stroke-miterlimit:10;" x1="135.841" y1="278.573" x2="156.573" y2="299.305"/>
			<line style="fill:none;stroke:#BD64AC;stroke-miterlimit:10;" x1="153.491" y1="260.923" x2="174.223" y2="281.655"/>
			<line style="fill:none;stroke:#232F63;stroke-miterlimit:10;" x1="145.74" y1="264.659" x2="172.729" y2="291.647"/>
			<line style="fill:none;stroke:#BD64AC;stroke-miterlimit:10;" x1="139.786" y1="270.612" x2="166.775" y2="297.601"/>
		</g>
		<g>
			<line style="fill:none;stroke:#232F63;stroke-miterlimit:10;" x1="215.593" y1="209.093" x2="225.679" y2="219.179"/>
			<line style="fill:none;stroke:#BD64AC;stroke-miterlimit:10;" x1="185.336" y1="239.351" x2="195.422" y2="249.436"/>
			<line style="fill:none;stroke:#232F63;stroke-miterlimit:10;" x1="186.643" y1="227.771" x2="207.375" y2="248.503"/>
			<line style="fill:none;stroke:#BD64AC;stroke-miterlimit:10;" x1="204.293" y1="210.12" x2="225.025" y2="230.852"/>
			<line style="fill:none;stroke:#232F63;stroke-miterlimit:10;" x1="196.542" y1="213.856" x2="223.531" y2="240.845"/>
			<line style="fill:none;stroke:#BD64AC;stroke-miterlimit:10;" x1="190.589" y1="219.809" x2="217.578" y2="246.798"/>
		</g>
		<g>
			<line style="fill:none;stroke:#232F63;stroke-miterlimit:10;" x1="266.396" y1="158.291" x2="276.482" y2="168.376"/>
			<line style="fill:none;stroke:#BD64AC;stroke-miterlimit:10;" x1="236.138" y1="188.548" x2="246.224" y2="198.634"/>
			<line style="fill:none;stroke:#232F63;stroke-miterlimit:10;" x1="237.446" y1="176.968" x2="258.178" y2="197.7"/>
			<line style="fill:none;stroke:#BD64AC;stroke-miterlimit:10;" x1="255.096" y1="159.318" x2="275.828" y2="180.05"/>
			<line style="fill:none;stroke:#232F63;stroke-miterlimit:10;" x1="247.345" y1="163.053" x2="274.334" y2="190.042"/>
			<line style="fill:none;stroke:#BD64AC;stroke-miterlimit:10;" x1="241.392" y1="169.007" x2="268.38" y2="195.996"/>
		</g>
		<g>
			<line style="fill:none;stroke:#BD64AC;stroke-miterlimit:10;" x1="286.311" y1="138.376" x2="296.397" y2="148.462"/>
			<line style="fill:none;stroke:#232F63;stroke-miterlimit:10;" x1="287.618" y1="126.796" x2="308.35" y2="147.528"/>
			<path style="fill:none;stroke:#232F63;stroke-miterlimit:10;" d="M318.553,145.824"/>
			<path style="fill:none;stroke:#232F63;stroke-miterlimit:10;" d="M291.564,118.835"/>
		</g>
		<g>
			<line style="fill:none;stroke:#232F63;stroke-miterlimit:10;" x1="125.265" y1="320.341" x2="115.179" y2="310.255"/>
			<line style="fill:none;stroke:#BD64AC;stroke-miterlimit:10;" x1="123.957" y1="331.921" x2="103.225" y2="311.189"/>
			<path style="fill:none;stroke:#232F63;stroke-miterlimit:10;" d="M93.023,312.893"/>
			<path style="fill:none;stroke:#232F63;stroke-miterlimit:10;" d="M120.012,339.882"/>
		</g>
	</g>
	<g>
		<g>
			<g>
				<path style="fill:#232F63;" d="M378.612,411.404v-10.715c14.621,0,27.998-7.387,35.784-19.761l24.765-39.089
					c8.72-13.855,4.556-32.241-9.284-40.986l-39.542-24.988l5.724-9.058l39.542,24.987c18.825,11.896,24.491,36.907,12.63,55.754
					l-24.765,39.089C413.706,402.144,396.938,411.404,378.612,411.404z"/>
			</g>
			
				<rect x="314.256" y="394.235" transform="matrix(-0.9351 -0.3545 0.3545 -0.9351 494.7084 881.7128)" style="fill:#232F63;" width="27.722" height="2.615"/>
			<path style="fill:#BD64AC;" d="M325.31,396.205l0.115-0.298l20.992,8.101c1.61,0.621,3.343-0.567,3.343-2.293l0,0
				c0-1.358,1.1-2.458,2.458-2.458h26.395v25.459H349.76v-1.614c0-3.054-1.879-5.794-4.729-6.894l-13.098-5.055
				C325.976,408.855,323.011,402.162,325.31,396.205z"/>
			<g>
				
					<rect x="393.442" y="228.229" transform="matrix(-0.5103 0.86 -0.86 -0.5103 816.3292 14.9078)" style="fill:#232F63;" width="20.958" height="23.261"/>
				
					<rect x="326.678" y="339.185" transform="matrix(-0.5103 0.86 -0.86 -0.5103 810.9124 239.905)" style="fill:#232F63;" width="20.958" height="23.261"/>
				<path style="fill:#232F63;" d="M415.034,236.069l3.89-6.555c2.149-3.62,0.955-8.297-2.665-10.445l0,0
					c-3.62-2.148-8.297-0.955-10.445,2.665l-3.89,6.555L415.034,236.069z"/>
				<path style="fill:#BD64AC;" d="M353.661,359.8l63.119-106.361c1.634-2.754,0.727-6.311-2.027-7.945l-21.716-12.887
					c-2.754-1.634-6.311-0.727-7.945,2.027l-63.119,106.361c-1.298,2.187-0.577,5.011,1.61,6.309l23.771,14.106
					C349.539,362.707,352.363,361.987,353.661,359.8z"/>
			</g>
			<path style="fill:#ECF7FC;" d="M358.246,411.987c0,3.281,2.66,5.94,5.94,5.94c3.281,0,5.94-2.66,5.94-5.94
				c0-3.281-2.659-5.94-5.94-5.94C360.905,406.046,358.246,408.706,358.246,411.987z"/>
			<path style="fill:#232F63;" d="M316.133,436.597h96.145v-4.039c0-4.331-3.511-7.841-7.841-7.841h-80.462
				c-4.331,0-7.841,3.511-7.841,7.841V436.597z"/>
		</g>
	</g>
	<g>
		<g>
			<g>
				<path style="fill:#FFFFFF;" d="M222.643,363.403h-6.187c-2.393,0-4.333-1.94-4.333-4.333v-61.652h14.854v61.652
					C226.976,361.463,225.036,363.403,222.643,363.403z"/>
				<path style="fill:#BD64AC;" d="M214.922,304.803v50.106c0,2.556,2.072,4.627,4.627,4.627c2.556,0,4.627-2.072,4.627-4.627
					v-50.106H214.922z"/>
				<rect x="208.766" y="297.418" style="fill:#FFFFFF;" width="21.567" height="3.385"/>
				<path style="fill:#ECF7FC;" d="M218.678,342.669c0,0.365-0.296,0.661-0.661,0.661c-0.365,0-0.661-0.296-0.661-0.661
					c0-0.365,0.296-0.661,0.661-0.661C218.382,342.009,218.678,342.305,218.678,342.669z"/>
				<path style="fill:#ECF7FC;" d="M219.669,308.945c0,0.365-0.296,0.661-0.661,0.661c-0.365,0-0.66-0.296-0.66-0.661
					c0-0.365,0.296-0.661,0.66-0.661C219.373,308.284,219.669,308.58,219.669,308.945z"/>
				<path style="fill:#ECF7FC;" d="M220.544,310.685c0,0.182-0.148,0.33-0.33,0.33c-0.182,0-0.33-0.148-0.33-0.33
					c0-0.182,0.148-0.33,0.33-0.33C220.396,310.355,220.544,310.503,220.544,310.685z"/>
				<path style="fill:#ECF7FC;" d="M218.678,352.854c0,0.182-0.148,0.33-0.33,0.33c-0.183,0-0.33-0.148-0.33-0.33
					s0.148-0.33,0.33-0.33C218.53,352.524,218.678,352.672,218.678,352.854z"/>
				<path style="fill:#ECF7FC;" d="M221.535,327.798c0,0.182-0.148,0.33-0.33,0.33c-0.182,0-0.33-0.148-0.33-0.33
					c0-0.182,0.148-0.33,0.33-0.33C221.387,327.467,221.535,327.615,221.535,327.798z"/>
				<path style="fill:#ECF7FC;" d="M221.499,351.453c0,0.592-0.48,1.071-1.071,1.071c-0.592,0-1.071-0.48-1.071-1.071
					c0-0.592,0.48-1.071,1.071-1.071C221.019,350.382,221.499,350.861,221.499,351.453z"/>
				<path style="fill:#ECF7FC;" d="M221.749,339.572c0,1.03-0.835,1.866-1.866,1.866c-1.031,0-1.866-0.835-1.866-1.866
					c0-1.031,0.835-1.866,1.866-1.866C220.914,337.706,221.749,338.541,221.749,339.572z"/>
			</g>
			<g>
				<path style="fill:#FFFFFF;" d="M248.814,363.403h-6.187c-2.393,0-4.333-1.94-4.333-4.333v-61.652h14.854v61.652
					C253.147,361.463,251.207,363.403,248.814,363.403z"/>
				<path style="fill:#F9AF55;" d="M241.093,304.803v50.106c0,2.556,2.072,4.627,4.627,4.627c2.556,0,4.627-2.072,4.627-4.627
					v-50.106H241.093z"/>
				<rect x="234.937" y="297.418" style="fill:#FFFFFF;" width="21.567" height="3.385"/>
				<path style="fill:#ECF7FC;" d="M244.849,342.669c0,0.365-0.296,0.661-0.661,0.661c-0.365,0-0.661-0.296-0.661-0.661
					c0-0.365,0.296-0.661,0.661-0.661C244.553,342.009,244.849,342.305,244.849,342.669z"/>
				<path style="fill:#ECF7FC;" d="M245.84,308.945c0,0.365-0.296,0.661-0.661,0.661c-0.365,0-0.661-0.296-0.661-0.661
					c0-0.365,0.296-0.661,0.661-0.661C245.544,308.284,245.84,308.58,245.84,308.945z"/>
				<path style="fill:#ECF7FC;" d="M246.715,310.685c0,0.182-0.148,0.33-0.33,0.33s-0.33-0.148-0.33-0.33
					c0-0.182,0.148-0.33,0.33-0.33S246.715,310.503,246.715,310.685z"/>
				<path style="fill:#ECF7FC;" d="M244.849,352.854c0,0.182-0.148,0.33-0.33,0.33c-0.182,0-0.33-0.148-0.33-0.33
					s0.148-0.33,0.33-0.33C244.701,352.524,244.849,352.672,244.849,352.854z"/>
				<path style="fill:#ECF7FC;" d="M247.706,327.798c0,0.182-0.148,0.33-0.33,0.33c-0.182,0-0.33-0.148-0.33-0.33
					c0-0.182,0.148-0.33,0.33-0.33C247.558,327.467,247.706,327.615,247.706,327.798z"/>
				<path style="fill:#ECF7FC;" d="M247.67,351.453c0,0.592-0.48,1.071-1.071,1.071c-0.592,0-1.071-0.48-1.071-1.071
					c0-0.592,0.48-1.071,1.071-1.071C247.19,350.382,247.67,350.861,247.67,351.453z"/>
				<path style="fill:#ECF7FC;" d="M247.92,339.572c0,1.03-0.835,1.866-1.866,1.866c-1.03,0-1.866-0.835-1.866-1.866
					c0-1.031,0.835-1.866,1.866-1.866C247.085,337.706,247.92,338.541,247.92,339.572z"/>
			</g>
			<g>
				<path style="fill:#FFFFFF;" d="M274.985,363.403h-6.187c-2.393,0-4.333-1.94-4.333-4.333v-61.652h14.854v61.652
					C279.318,361.463,277.378,363.403,274.985,363.403z"/>
				<path style="fill:#232F63;" d="M267.264,304.803v50.106c0,2.556,2.072,4.627,4.627,4.627c2.556,0,4.627-2.072,4.627-4.627
					v-50.106H267.264z"/>
				<rect x="261.108" y="297.418" style="fill:#FFFFFF;" width="21.567" height="3.385"/>
				<path style="fill:#ECF7FC;" d="M271.02,342.669c0,0.365-0.296,0.661-0.66,0.661s-0.661-0.296-0.661-0.661
					c0-0.365,0.296-0.661,0.661-0.661S271.02,342.305,271.02,342.669z"/>
				<path style="fill:#ECF7FC;" d="M272.011,308.945c0,0.365-0.296,0.661-0.661,0.661c-0.365,0-0.661-0.296-0.661-0.661
					c0-0.365,0.296-0.661,0.661-0.661C271.715,308.284,272.011,308.58,272.011,308.945z"/>
				<path style="fill:#ECF7FC;" d="M272.886,310.685c0,0.182-0.148,0.33-0.33,0.33c-0.182,0-0.33-0.148-0.33-0.33
					c0-0.182,0.148-0.33,0.33-0.33C272.738,310.355,272.886,310.503,272.886,310.685z"/>
				<path style="fill:#ECF7FC;" d="M271.02,352.854c0,0.182-0.148,0.33-0.33,0.33c-0.182,0-0.33-0.148-0.33-0.33
					s0.148-0.33,0.33-0.33C270.872,352.524,271.02,352.672,271.02,352.854z"/>
				<path style="fill:#ECF7FC;" d="M273.877,327.798c0,0.182-0.148,0.33-0.33,0.33c-0.182,0-0.33-0.148-0.33-0.33
					c0-0.182,0.148-0.33,0.33-0.33C273.729,327.467,273.877,327.615,273.877,327.798z"/>
				<path style="fill:#ECF7FC;" d="M273.841,351.453c0,0.592-0.48,1.071-1.071,1.071c-0.592,0-1.071-0.48-1.071-1.071
					c0-0.592,0.48-1.071,1.071-1.071C273.361,350.382,273.841,350.861,273.841,351.453z"/>
				<path style="fill:#ECF7FC;" d="M274.091,339.572c0,1.03-0.835,1.866-1.866,1.866s-1.866-0.835-1.866-1.866
					c0-1.031,0.835-1.866,1.866-1.866S274.091,338.541,274.091,339.572z"/>
			</g>
		</g>
	</g>
	<g>
		<polygon style="fill:none;stroke:#232F63;stroke-width:0.75;stroke-miterlimit:10;" points="148.128,65.055 127.514,65.055 
			117.207,82.907 127.514,100.758 148.128,100.758 158.434,82.907 		"/>
		<path style="fill:#232F63;" d="M130.216,65.055c0,1.492-1.21,2.702-2.702,2.702s-2.702-1.21-2.702-2.702
			c0-1.492,1.21-2.702,2.702-2.702S130.216,63.563,130.216,65.055z"/>
		<path style="fill:#232F63;" d="M150.829,65.055c0,1.492-1.21,2.702-2.702,2.702c-1.492,0-2.702-1.21-2.702-2.702
			c0-1.492,1.21-2.702,2.702-2.702C149.62,62.353,150.829,63.563,150.829,65.055z"/>
		<circle style="fill:#232F63;" cx="127.514" cy="100.758" r="2.702"/>
		<circle style="fill:#232F63;" cx="148.128" cy="100.758" r="2.702"/>
		<circle style="fill:#232F63;" cx="158.434" cy="82.907" r="2.702"/>
		<circle style="fill:#232F63;" cx="117.207" cy="82.907" r="2.702"/>
		<polyline style="fill:none;stroke:#232F63;stroke-width:0.75;stroke-miterlimit:10;" points="117.207,118.61 127.514,136.462 
			148.128,136.462 158.434,118.61 148.128,100.758 127.514,100.758 		"/>
		<circle style="fill:#232F63;" cx="127.514" cy="100.758" r="2.702"/>
		<circle style="fill:#232F63;" cx="148.128" cy="100.758" r="2.702"/>
		<polyline style="fill:none;stroke:#232F63;stroke-width:0.75;stroke-miterlimit:10;" points="179.048,82.907 158.434,82.907 
			148.128,100.758 158.434,118.61 179.048,118.61 189.354,100.758 		"/>
		<circle style="fill:#232F63;" cx="158.434" cy="82.907" r="2.702"/>
		<circle style="fill:#232F63;" cx="179.048" cy="82.907" r="2.702"/>
		<circle style="fill:#232F63;" cx="158.434" cy="118.61" r="2.702"/>
		<circle style="fill:#232F63;" cx="179.048" cy="118.61" r="2.702"/>
		<circle style="fill:#232F63;" cx="189.354" cy="100.758" r="2.702"/>
		<circle style="fill:#232F63;" cx="148.128" cy="100.758" r="2.702"/>
		<circle style="fill:#232F63;" cx="158.434" cy="118.61" r="2.702"/>
		<circle style="fill:#232F63;" cx="179.048" cy="118.61" r="2.702"/>
		<path style="fill:#232F63;" d="M130.216,136.462c0,1.492-1.21,2.702-2.702,2.702s-2.702-1.21-2.702-2.702
			c0-1.492,1.21-2.702,2.702-2.702S130.216,134.969,130.216,136.462z"/>
		<path style="fill:#232F63;" d="M150.829,136.462c0,1.492-1.21,2.702-2.702,2.702c-1.492,0-2.702-1.21-2.702-2.702
			c0-1.492,1.21-2.702,2.702-2.702C149.62,133.76,150.829,134.969,150.829,136.462z"/>
		<circle style="fill:#232F63;" cx="158.434" cy="118.61" r="2.702"/>
		<circle style="fill:#232F63;" cx="117.207" cy="118.61" r="2.702"/>
	</g>
	<g>
		<polygon style="fill:none;stroke:#232F63;stroke-miterlimit:10;" points="232.189,457.036 248.764,457.036 257.052,442.681 
			248.764,428.327 232.189,428.327 223.901,442.681 		"/>
		<path style="fill:#232F63;" d="M246.592,457.036c0-1.2,0.973-2.172,2.172-2.172s2.173,0.973,2.173,2.172s-0.973,2.172-2.173,2.172
			S246.592,458.236,246.592,457.036z"/>
		<circle style="fill:#232F63;" cx="232.189" cy="457.036" r="2.172"/>
		<path style="fill:#232F63;" d="M246.592,428.327c0-1.2,0.973-2.172,2.172-2.172s2.173,0.973,2.173,2.172
			c0,1.2-0.973,2.172-2.173,2.172S246.592,429.526,246.592,428.327z"/>
		<path style="fill:#232F63;" d="M230.016,428.327c0-1.2,0.973-2.172,2.172-2.172s2.172,0.973,2.172,2.172
			c0,1.2-0.973,2.172-2.172,2.172S230.016,429.526,230.016,428.327z"/>
		<path style="fill:#232F63;" d="M221.729,442.681c0-1.2,0.973-2.172,2.173-2.172s2.172,0.973,2.172,2.172s-0.973,2.172-2.172,2.172
			S221.729,443.881,221.729,442.681z"/>
		<path style="fill:#232F63;" d="M254.88,442.681c0-1.2,0.973-2.172,2.172-2.172c1.2,0,2.172,0.973,2.172,2.172
			s-0.973,2.172-2.172,2.172C255.852,444.854,254.88,443.881,254.88,442.681z"/>
		<polyline style="fill:none;stroke:#232F63;stroke-miterlimit:10;" points="257.052,413.972 248.764,399.617 232.189,399.617 
			223.901,413.972 232.189,428.327 248.764,428.327 		"/>
		<path style="fill:#232F63;" d="M246.592,428.327c0-1.2,0.973-2.172,2.172-2.172s2.173,0.973,2.173,2.172
			c0,1.2-0.973,2.172-2.173,2.172S246.592,429.526,246.592,428.327z"/>
		<path style="fill:#232F63;" d="M230.016,428.327c0-1.2,0.973-2.172,2.172-2.172s2.172,0.973,2.172,2.172
			c0,1.2-0.973,2.172-2.172,2.172S230.016,429.526,230.016,428.327z"/>
		<polyline style="fill:none;stroke:#232F63;stroke-miterlimit:10;" points="207.326,442.681 223.901,442.681 232.189,428.327 
			223.901,413.972 207.326,413.972 199.038,428.327 		"/>
		<path style="fill:#232F63;" d="M221.729,442.681c0-1.2,0.973-2.172,2.173-2.172s2.172,0.973,2.172,2.172s-0.973,2.172-2.172,2.172
			S221.729,443.881,221.729,442.681z"/>
		<path style="fill:#232F63;" d="M205.153,442.681c0-1.2,0.973-2.172,2.173-2.172c1.2,0,2.172,0.973,2.172,2.172
			s-0.973,2.172-2.172,2.172C206.126,444.854,205.153,443.881,205.153,442.681z"/>
		<path style="fill:#232F63;" d="M221.729,413.972c0-1.2,0.973-2.172,2.173-2.172s2.172,0.973,2.172,2.172s-0.973,2.173-2.172,2.173
			S221.729,415.172,221.729,413.972z"/>
		<path style="fill:#232F63;" d="M205.153,413.972c0-1.2,0.973-2.172,2.173-2.172c1.2,0,2.172,0.973,2.172,2.172
			s-0.973,2.173-2.172,2.173C206.126,416.144,205.153,415.172,205.153,413.972z"/>
		<path style="fill:#232F63;" d="M196.866,428.327c0-1.2,0.973-2.172,2.173-2.172c1.2,0,2.172,0.973,2.172,2.172
			c0,1.2-0.973,2.172-2.172,2.172C197.838,430.499,196.866,429.526,196.866,428.327z"/>
		<path style="fill:#232F63;" d="M230.016,428.327c0-1.2,0.973-2.172,2.172-2.172s2.172,0.973,2.172,2.172
			c0,1.2-0.973,2.172-2.172,2.172S230.016,429.526,230.016,428.327z"/>
		<path style="fill:#232F63;" d="M221.729,413.972c0-1.2,0.973-2.172,2.173-2.172s2.172,0.973,2.172,2.172s-0.973,2.173-2.172,2.173
			S221.729,415.172,221.729,413.972z"/>
		<path style="fill:#232F63;" d="M205.153,413.972c0-1.2,0.973-2.172,2.173-2.172c1.2,0,2.172,0.973,2.172,2.172
			s-0.973,2.173-2.172,2.173C206.126,416.144,205.153,415.172,205.153,413.972z"/>
		<path style="fill:#232F63;" d="M246.592,399.617c0-1.2,0.973-2.172,2.172-2.172s2.173,0.973,2.173,2.172s-0.973,2.173-2.173,2.173
			S246.592,400.817,246.592,399.617z"/>
		<path style="fill:#232F63;" d="M230.016,399.617c0-1.2,0.973-2.172,2.172-2.172s2.172,0.973,2.172,2.172s-0.973,2.173-2.172,2.173
			S230.016,400.817,230.016,399.617z"/>
		<path style="fill:#232F63;" d="M221.729,413.972c0-1.2,0.973-2.172,2.173-2.172s2.172,0.973,2.172,2.172s-0.973,2.173-2.172,2.173
			S221.729,415.172,221.729,413.972z"/>
		<path style="fill:#232F63;" d="M254.88,413.972c0-1.2,0.973-2.172,2.172-2.172c1.2,0,2.172,0.973,2.172,2.172
			s-0.973,2.173-2.172,2.173C255.852,416.144,254.88,415.172,254.88,413.972z"/>
	</g>
	<g>
		<polygon style="fill:none;stroke:#232F63;stroke-width:0.5;stroke-miterlimit:10;" points="345.547,112.598 345.547,128.007 
			358.892,135.712 372.237,128.007 372.237,112.598 358.892,104.893 		"/>
		<path style="fill:#232F63;" d="M345.547,125.988c1.115,0,2.02,0.904,2.02,2.02s-0.904,2.02-2.02,2.02
			c-1.115,0-2.02-0.904-2.02-2.02S344.432,125.988,345.547,125.988z"/>
		<path style="fill:#232F63;" d="M345.547,110.578c1.115,0,2.02,0.904,2.02,2.02s-0.904,2.02-2.02,2.02
			c-1.115,0-2.02-0.904-2.02-2.02S344.432,110.578,345.547,110.578z"/>
		<path style="fill:#232F63;" d="M372.237,125.988c1.115,0,2.02,0.904,2.02,2.02s-0.904,2.02-2.02,2.02
			c-1.115,0-2.02-0.904-2.02-2.02S371.122,125.988,372.237,125.988z"/>
		<path style="fill:#232F63;" d="M372.237,110.578c1.115,0,2.02,0.904,2.02,2.02s-0.904,2.02-2.02,2.02
			c-1.115,0-2.02-0.904-2.02-2.02S371.122,110.578,372.237,110.578z"/>
		<path style="fill:#232F63;" d="M358.892,102.874c1.115,0,2.02,0.904,2.02,2.02c0,1.115-0.904,2.02-2.02,2.02
			c-1.116,0-2.02-0.904-2.02-2.02C356.873,103.778,357.777,102.874,358.892,102.874z"/>
		<path style="fill:#232F63;" d="M358.892,133.692c1.115,0,2.02,0.904,2.02,2.02s-0.904,2.02-2.02,2.02
			c-1.116,0-2.02-0.904-2.02-2.02S357.777,133.692,358.892,133.692z"/>
		<polyline style="fill:none;stroke:#232F63;stroke-width:0.5;stroke-miterlimit:10;" points="385.582,135.712 398.927,128.007 
			398.927,112.598 385.582,104.893 372.237,112.598 372.237,128.007 		"/>
		<path style="fill:#232F63;" d="M372.237,125.988c1.115,0,2.02,0.904,2.02,2.02s-0.904,2.02-2.02,2.02
			c-1.115,0-2.02-0.904-2.02-2.02S371.122,125.988,372.237,125.988z"/>
		<path style="fill:#232F63;" d="M372.237,110.578c1.115,0,2.02,0.904,2.02,2.02s-0.904,2.02-2.02,2.02
			c-1.115,0-2.02-0.904-2.02-2.02S371.122,110.578,372.237,110.578z"/>
		<polyline style="fill:none;stroke:#232F63;stroke-width:0.5;stroke-miterlimit:10;" points="358.892,89.484 358.892,104.893 
			372.237,112.598 385.582,104.893 385.582,89.484 372.237,81.779 		"/>
		<path style="fill:#232F63;" d="M358.892,102.874c1.115,0,2.02,0.904,2.02,2.02c0,1.115-0.904,2.02-2.02,2.02
			c-1.116,0-2.02-0.904-2.02-2.02C356.873,103.778,357.777,102.874,358.892,102.874z"/>
		<path style="fill:#232F63;" d="M358.892,87.464c1.115,0,2.02,0.904,2.02,2.02c0,1.115-0.904,2.02-2.02,2.02
			c-1.116,0-2.02-0.904-2.02-2.02C356.873,88.368,357.777,87.464,358.892,87.464z"/>
		<circle style="fill:#232F63;" cx="385.582" cy="104.893" r="2.02"/>
		<path style="fill:#232F63;" d="M385.582,87.464c1.115,0,2.02,0.904,2.02,2.02c0,1.115-0.904,2.02-2.02,2.02
			c-1.115,0-2.02-0.904-2.02-2.02C383.563,88.368,384.467,87.464,385.582,87.464z"/>
		<path style="fill:#232F63;" d="M372.237,79.76c1.115,0,2.02,0.904,2.02,2.02c0,1.116-0.904,2.02-2.02,2.02
			c-1.115,0-2.02-0.904-2.02-2.02C370.217,80.664,371.122,79.76,372.237,79.76z"/>
		<path style="fill:#232F63;" d="M372.237,110.578c1.115,0,2.02,0.904,2.02,2.02s-0.904,2.02-2.02,2.02
			c-1.115,0-2.02-0.904-2.02-2.02S371.122,110.578,372.237,110.578z"/>
		<circle style="fill:#232F63;" cx="385.582" cy="104.893" r="2.02"/>
		<path style="fill:#232F63;" d="M385.582,87.464c1.115,0,2.02,0.904,2.02,2.02c0,1.115-0.904,2.02-2.02,2.02
			c-1.115,0-2.02-0.904-2.02-2.02C383.563,88.368,384.467,87.464,385.582,87.464z"/>
		
			<ellipse transform="matrix(0.3806 -0.9247 0.9247 0.3806 128.7211 448.1908)" style="fill:#232F63;" cx="398.927" cy="128.007" rx="2.02" ry="2.02"/>
		
			<ellipse transform="matrix(0.3806 -0.9247 0.9247 0.3806 142.9708 438.6463)" style="fill:#232F63;" cx="398.927" cy="112.598" rx="2.02" ry="2.02"/>
		<circle style="fill:#232F63;" cx="385.582" cy="104.893" r="2.02"/>
		<path style="fill:#232F63;" d="M385.582,133.692c1.115,0,2.02,0.904,2.02,2.02s-0.904,2.02-2.02,2.02
			c-1.115,0-2.02-0.904-2.02-2.02S384.467,133.692,385.582,133.692z"/>
	</g>
	<path style="opacity:0.7;fill-rule:evenodd;clip-rule:evenodd;fill:#FFFFFF;" d="M88.741,210.988
		c0.398-1.494,0.991-2.908,1.75-4.213l-2.254-3.58l4.952-4.945l3.577,2.259c1.306-0.758,2.722-1.349,4.216-1.744l0.937-4.123
		l6.999,0.005l0.931,4.124c1.494,0.398,2.908,0.991,4.214,1.751l3.58-2.254l4.945,4.952l-2.259,3.577
		c0.758,1.307,1.349,2.722,1.744,4.216l4.124,0.937l-0.005,6.999l-4.124,0.931c-0.398,1.494-0.991,2.908-1.751,4.214l2.254,3.58
		l-4.952,4.945l-3.577-2.259c-1.306,0.757-2.721,1.349-4.216,1.744l-0.937,4.124l-6.999-0.005l-0.931-4.124
		c-1.494-0.398-2.908-0.991-4.214-1.751l-3.58,2.254l-4.945-4.952l2.259-3.577c-0.758-1.307-1.349-2.721-1.744-4.216l-4.124-0.937
		l0.005-6.999L88.741,210.988L88.741,210.988z M97.896,215.11c-0.003,4.146,3.356,7.51,7.503,7.513
		c4.146,0.003,7.51-3.356,7.513-7.503c0.003-4.146-3.356-7.51-7.503-7.513C101.263,207.605,97.899,210.964,97.896,215.11z"/>
	<path style="fill-rule:evenodd;clip-rule:evenodd;fill:#BD64AC;" d="M131.45,187.375c0.199-0.747,0.495-1.454,0.875-2.107
		l-1.127-1.79l2.476-2.473l1.788,1.129c0.653-0.379,1.361-0.674,2.108-0.872l0.469-2.062l3.499,0.003l0.466,2.062
		c0.747,0.199,1.454,0.495,2.107,0.875l1.79-1.127l2.473,2.476l-1.13,1.788c0.379,0.653,0.674,1.361,0.872,2.108l2.062,0.469
		l-0.003,3.499l-2.062,0.466c-0.199,0.747-0.496,1.454-0.875,2.107l1.127,1.79l-2.476,2.473l-1.788-1.13
		c-0.653,0.379-1.361,0.674-2.108,0.872l-0.469,2.062l-3.499-0.003l-0.466-2.062c-0.747-0.199-1.454-0.496-2.107-0.876l-1.79,1.127
		l-2.473-2.476l1.13-1.788c-0.379-0.653-0.674-1.361-0.872-2.108l-2.062-0.469l0.003-3.499L131.45,187.375L131.45,187.375z
		 M136.028,189.436c-0.001,2.073,1.678,3.755,3.751,3.757c2.073,0.001,3.755-1.678,3.757-3.751c0.001-2.073-1.678-3.755-3.751-3.757
		C137.712,185.683,136.03,187.363,136.028,189.436z"/>
	<path style="fill-rule:evenodd;clip-rule:evenodd;fill:#232F63;" d="M380.781,174.179c0.199-0.747,0.495-1.454,0.875-2.107
		l-1.127-1.79l2.476-2.473l1.788,1.13c0.653-0.379,1.361-0.674,2.108-0.872l0.469-2.062l3.499,0.002l0.466,2.062
		c0.747,0.199,1.454,0.496,2.107,0.876l1.79-1.127l2.473,2.476l-1.13,1.788c0.379,0.653,0.674,1.361,0.872,2.108l2.062,0.469
		l-0.003,3.499l-2.062,0.466c-0.199,0.747-0.496,1.454-0.875,2.107l1.127,1.79l-2.476,2.473l-1.788-1.13
		c-0.653,0.379-1.361,0.674-2.108,0.872l-0.469,2.062l-3.499-0.003l-0.466-2.062c-0.747-0.199-1.454-0.495-2.107-0.875l-1.79,1.127
		l-2.473-2.476l1.13-1.788c-0.379-0.653-0.674-1.361-0.872-2.108l-2.062-0.469l0.003-3.499L380.781,174.179L380.781,174.179z
		 M385.359,176.24c-0.002,2.073,1.678,3.755,3.751,3.757c2.073,0.001,3.755-1.678,3.757-3.751c0.001-2.073-1.678-3.755-3.751-3.757
		C387.042,172.488,385.361,174.167,385.359,176.24z"/>
	<path style="fill-rule:evenodd;clip-rule:evenodd;fill:#BD64AC;" d="M161.532,384.183c0.158-0.593,0.393-1.155,0.695-1.673
		l-0.895-1.421l1.966-1.963l1.42,0.897c0.519-0.301,1.081-0.536,1.674-0.693l0.372-1.637l2.779,0.002l0.37,1.637
		c0.593,0.158,1.155,0.393,1.673,0.695l1.421-0.895l1.963,1.966l-0.897,1.42c0.301,0.519,0.535,1.08,0.692,1.674l1.637,0.372
		l-0.002,2.779l-1.637,0.37c-0.158,0.593-0.394,1.155-0.695,1.673l0.895,1.421l-1.966,1.963l-1.42-0.897
		c-0.519,0.301-1.08,0.535-1.674,0.693l-0.372,1.637l-2.779-0.002l-0.37-1.637c-0.593-0.158-1.155-0.393-1.673-0.695l-1.421,0.895
		l-1.963-1.966l0.897-1.42c-0.301-0.519-0.535-1.08-0.692-1.674l-1.637-0.372l0.002-2.779L161.532,384.183L161.532,384.183z
		 M165.166,385.819c-0.001,1.646,1.333,2.982,2.979,2.983c1.646,0.001,2.982-1.332,2.983-2.979c0.001-1.646-1.332-2.982-2.979-2.983
		C166.503,382.839,165.168,384.173,165.166,385.819z"/>
	<g>
		<g>
			
				<rect x="285.46" y="236.24" transform="matrix(0.7722 -0.6354 0.6354 0.7722 -89.6387 238.4698)" style="fill:#BD64AC;" width="4.578" height="16.009"/>
			
				<rect x="299.268" y="245.377" transform="matrix(0.7722 -0.6354 0.6354 0.7722 -99.4523 254.7639)" style="fill:#232F63;" width="12.598" height="41.401"/>
		</g>
		<path style="fill:#232F63;" d="M263.487,172.781c-10.293-1-20.015,2.287-27.397,8.407c-7.307,6.058-12.312,14.888-13.303,25.082
			c-1.991,20.487,13.002,38.708,33.488,40.699c9.309,0.905,18.148-1.696,25.213-6.729c0.67-0.478,1.324-0.976,1.961-1.494
			c0.546-0.443,1.081-0.907,1.599-1.384c6.554-5.998,10.999-14.345,11.926-23.881C298.966,192.993,283.973,174.772,263.487,172.781z
			 M288.053,212.613c-0.758,7.83-4.644,14.609-10.299,19.211c-5.578,4.544-12.883,6.975-20.612,6.223
			c-15.562-1.513-26.949-15.352-25.434-30.911c0.751-7.729,4.543-14.429,10.076-19.027c5.605-4.663,13.005-7.171,20.834-6.406
			C278.179,183.211,289.566,197.051,288.053,212.613z"/>
	</g>
	<g>
		<path style="fill:#232F63;" d="M195.21,157.933c-5.573-5.573-13.146-7.902-20.407-7.029c-0.872,7.262,1.457,14.834,7.029,20.407
			c5.573,5.573,13.146,7.902,20.407,7.029C203.112,171.079,200.783,163.506,195.21,157.933z"/>
		<line style="fill:none;stroke:#FFFFFF;stroke-miterlimit:10;" x1="189.604" y1="165.786" x2="204.083" y2="180.895"/>
	</g>
	<g>
		<path style="fill:#F9AF55;" d="M256.354,101.216c3.832-3.833,5.434-9.041,4.834-14.034c-4.994-0.6-10.202,1.002-14.034,4.834
			c-3.833,3.832-5.434,9.04-4.834,14.034C247.313,106.65,252.522,105.049,256.354,101.216z"/>
		<line style="fill:none;stroke:#FFFFFF;stroke-miterlimit:10;" x1="250.953" y1="97.36" x2="240.563" y2="107.318"/>
	</g>
	<g>
		<path style="fill:#F9AF55;" d="M177.731,335.368c-3.833-3.833-9.04-5.434-14.034-4.834c-0.6,4.994,1.002,10.202,4.834,14.034
			c3.833,3.833,9.04,5.434,14.034,4.834C183.165,344.408,181.563,339.2,177.731,335.368z"/>
		<line style="fill:none;stroke:#FFFFFF;stroke-miterlimit:10;" x1="173.875" y1="340.768" x2="183.833" y2="351.159"/>
	</g>
	<g>
		<path style="fill:#232F63;" d="M344.969,215.277c5.512-5.512,7.815-13.002,6.953-20.184c-7.182-0.863-14.672,1.441-20.184,6.953
			c-5.512,5.512-7.815,13.002-6.953,20.184C331.967,223.093,339.458,220.789,344.969,215.277z"/>
		<line style="fill:none;stroke:#FFFFFF;stroke-miterlimit:10;" x1="337.202" y1="209.732" x2="322.258" y2="224.053"/>
	</g>
	<circle style="fill:#BD64AC;" cx="219.219" cy="130.027" r="2.526"/>
	<path style="fill:#BD64AC;" d="M308.093,321.555c0,1.395-1.131,2.526-2.526,2.526s-2.526-1.131-2.526-2.526
		s1.131-2.526,2.526-2.526S308.093,320.159,308.093,321.555z"/>
	<path style="fill:#232F63;" d="M95.174,264.939c0,1.395-1.131,2.526-2.526,2.526c-1.395,0-2.526-1.131-2.526-2.526
		s1.131-2.526,2.526-2.526C94.043,262.413,95.174,263.543,95.174,264.939z"/>
</g>
</svg>
