<svg width="616" height="616" viewBox="0 0 616 616" fill="none" xmlns="http://www.w3.org/2000/svg">
<path d="M489.646 81.8417C385.382 -0.086256 195.703 1.23198 129.877 131.898C114.169 163.08 98.2274 194.73 73.0946 219.567C51.744 240.659 27.6707 261.664 17.901 291.023C-3.79456 356.319 50.8446 405.698 95.0734 443.311C137.072 479.039 160.825 532.852 205.83 564.626C233.649 584.276 267.948 592.013 301.594 588.65C336.09 585.212 361.962 563.8 392.38 549.472C415.443 538.593 439.75 536.006 463.688 528.528C484.151 522.097 504.245 509.247 520.951 495.769C557.468 466.3 583.783 424.941 596.645 379.961C627.507 271.57 577.291 150.723 489.646 81.8417Z" fill="#016FC1"/>
<path opacity="0.7" d="M489.646 81.8417C385.382 -0.086256 195.703 1.23198 129.877 131.898C114.169 163.08 98.2274 194.73 73.0946 219.567C51.744 240.659 27.6707 261.664 17.901 291.023C-3.79456 356.319 50.8446 405.698 95.0734 443.311C137.072 479.039 160.825 532.852 205.83 564.626C233.649 584.276 267.948 592.013 301.594 588.65C336.09 585.212 361.962 563.8 392.38 549.472C415.443 538.593 439.75 536.006 463.688 528.528C484.151 522.097 504.245 509.247 520.951 495.769C557.468 466.3 583.783 424.941 596.645 379.961C627.507 271.57 577.291 150.723 489.646 81.8417Z" fill="#F6F6F6"/>
<g opacity="0.3">
<path d="M214.812 357.305H192.34V425.816H214.812V357.305Z" fill="#F6F6F6" stroke="black" stroke-width="1.232" stroke-miterlimit="10"/>
<path d="M255.911 323.88H151.228V410.478H255.911V323.88Z" fill="#F6F6F6" stroke="black" stroke-width="1.232" stroke-miterlimit="10"/>
<path d="M248.63 329.905H158.521V404.441H248.63V329.905Z" fill="#F6F6F6" stroke="black" stroke-width="1.232" stroke-miterlimit="10"/>
<path d="M431.188 423.069H86.1291V559.882H431.188V423.069Z" fill="#F6F6F6" stroke="black" stroke-width="1.232" stroke-miterlimit="10"/>
<path d="M86.0182 494.315H429.648" stroke="black" stroke-width="1.232" stroke-miterlimit="10"/>
<path d="M431.175 423.069H323.868V559.882H431.175V423.069Z" fill="#F6F6F6" stroke="black" stroke-width="1.232" stroke-miterlimit="10"/>
<path d="M437.865 423.069H79.4394V436.227H437.865V423.069Z" fill="#F6F6F6" stroke="black" stroke-width="1.232" stroke-miterlimit="10"/>
<path d="M254.815 436.35L260.235 446.341H291.023L296.468 436.35H254.815Z" fill="#F6F6F6" stroke="black" stroke-width="1.232" stroke-miterlimit="10"/>
<path d="M254.815 493.896L260.235 503.888H291.023L296.468 493.896H254.815Z" fill="#F6F6F6" stroke="black" stroke-width="1.232" stroke-miterlimit="10"/>
<path d="M139.179 436.35L144.6 446.341H175.388L180.833 436.35H139.179Z" fill="#F6F6F6" stroke="black" stroke-width="1.232" stroke-miterlimit="10"/>
<path d="M139.179 493.896L144.6 503.888H175.388L180.833 493.896H139.179Z" fill="#F6F6F6" stroke="black" stroke-width="1.232" stroke-miterlimit="10"/>
</g>
<g opacity="0.3">
<path d="M550.741 417.007H560.905V405.513H550.741V417.007Z" fill="#263238" stroke="black" stroke-width="1.232" stroke-miterlimit="10"/>
<path d="M546.749 408.162H566.203V401.09H546.749V408.162Z" fill="#263238" stroke="black" stroke-width="1.232" stroke-miterlimit="10"/>
<path d="M534.368 530.204H578.141V413.472H534.368V530.204Z" fill="#F6F6F6" stroke="black" stroke-width="1.232" stroke-miterlimit="10"/>
<path d="M561.114 459.45C567.34 459.45 572.387 454.403 572.387 448.177C572.387 441.951 567.34 436.904 561.114 436.904C554.889 436.904 549.841 441.951 549.841 448.177C549.841 454.403 554.889 459.45 561.114 459.45Z" fill="#263238" stroke="black" stroke-width="1.232" stroke-miterlimit="10"/>
<path d="M469.195 559.919L489.264 534.725H547.193L567.114 559.919H469.195Z" fill="#F6F6F6" stroke="black" stroke-width="1.232" stroke-miterlimit="10"/>
<path d="M549.065 535.058H469.725C467.872 535.058 466.095 534.322 464.785 533.012C463.475 531.702 462.739 529.925 462.739 528.072V527.542H556.039V528.072C556.039 529.923 555.304 531.698 553.997 533.007C552.69 534.317 550.916 535.054 549.065 535.058Z" fill="#F6F6F6" stroke="black" stroke-width="1.232" stroke-miterlimit="10"/>
<path d="M498.109 377.253L515.687 388.708L517.981 385.188L500.403 373.734L498.109 377.253Z" fill="#F6F6F6" stroke="black" stroke-width="1.232" stroke-miterlimit="10"/>
<path d="M483.971 369.39L500.415 380.157L507.34 369.58L490.896 358.813L483.971 369.39Z" fill="#263238" stroke="black" stroke-width="1.23698" stroke-miterlimit="10"/>
<path d="M554.264 358.648H558.244V345.822H554.264V358.648Z" fill="#263238" stroke="black" stroke-width="1.232" stroke-miterlimit="10"/>
<path d="M552.49 382.955H560.449V357.748H552.49V382.955Z" fill="#F6F6F6" stroke="black" stroke-width="1.232" stroke-miterlimit="10"/>
<path d="M547.193 394.893H565.759V380.306H547.193V394.893Z" fill="#F6F6F6" stroke="black" stroke-width="1.232" stroke-miterlimit="10"/>
<path d="M517.181 373.321L538.335 391.197L585.298 395.336L584.227 407.41L527.567 402.408L508.422 388.129L517.181 373.321Z" fill="#F6F6F6" stroke="black" stroke-width="1.232" stroke-miterlimit="10"/>
</g>
<path d="M263.204 265.989L279.738 219.493C279.738 219.493 289.027 184.886 298.329 174.032C307.63 163.178 325.248 166.8 325.248 166.8C325.248 166.8 343.321 146.14 347.424 152.337C351.527 158.534 337.088 170.423 333.983 176.62C330.878 182.816 326.221 198.352 321.552 207.099C316.883 215.846 305.536 224.668 305.536 224.668L303.479 277.348L266.284 291.824L263.204 265.989Z" fill="#F6F6F6" stroke="#263238" stroke-width="1.232" stroke-linecap="round" stroke-linejoin="round"/>
<path d="M325.248 166.8C325.248 166.8 307.68 163.191 298.378 174.032C289.076 184.874 279.787 219.493 279.787 219.493L269.931 247.053C273.707 250.828 278.588 253.301 283.865 254.112C291.602 255.135 299.068 252.055 304.624 248.704L305.561 224.668C305.561 224.668 316.932 215.883 321.577 207.099C326.221 198.315 330.878 182.816 333.971 176.62C337.063 170.423 351.539 158.534 347.412 152.337C343.284 146.14 325.248 166.8 325.248 166.8Z" fill="#016FC1" stroke="#263238" stroke-width="1.232" stroke-linecap="round" stroke-linejoin="round"/>
<path d="M328.809 171.457H344.825V219.887C344.825 220.583 344.687 221.272 344.421 221.915C344.155 222.557 343.765 223.141 343.273 223.633C342.781 224.125 342.197 224.515 341.554 224.782C340.911 225.048 340.223 225.185 339.527 225.185H334.094C333.398 225.185 332.709 225.048 332.066 224.782C331.424 224.515 330.84 224.125 330.348 223.633C329.856 223.141 329.466 222.557 329.199 221.915C328.933 221.272 328.796 220.583 328.796 219.887V171.457H328.809Z" stroke="#263238" stroke-width="1.232" stroke-linecap="round" stroke-linejoin="round"/>
<path d="M336.816 221.033C336.121 221.033 335.432 220.896 334.789 220.63C334.146 220.364 333.562 219.973 333.07 219.481C332.579 218.99 332.188 218.406 331.922 217.763C331.656 217.12 331.519 216.431 331.519 215.736V176.706H342.114V215.736C342.114 216.431 341.977 217.12 341.711 217.763C341.445 218.406 341.054 218.99 340.562 219.481C340.07 219.973 339.486 220.364 338.844 220.63C338.201 220.896 337.512 221.033 336.816 221.033Z" fill="#93CE4E"/>
<path d="M283.865 214.368C283.865 214.368 284.9 187.51 286.97 179.244C289.039 170.977 311.252 154.961 314.345 154.961C317.437 154.961 350.504 163.228 352.056 167.872C353.609 172.517 348.434 179.244 340.697 181.819C332.96 184.393 305.043 188.496 305.043 188.496C305.043 188.496 308.665 206.582 304.008 213.296" fill="#016FC1"/>
<path d="M283.865 214.368C283.865 214.368 284.9 187.51 286.97 179.244C289.039 170.977 311.252 154.961 314.345 154.961C317.437 154.961 350.504 163.228 352.056 167.872C353.609 172.517 348.434 179.244 340.697 181.819C332.96 184.393 305.043 188.496 305.043 188.496C305.043 188.496 308.665 206.582 304.008 213.296" stroke="#263238" stroke-width="1.232" stroke-linecap="round" stroke-linejoin="round"/>
<path d="M344.307 180.747C344.307 180.747 346.377 176.102 343.79 175.585C341.202 175.067 319.507 175.067 314.862 175.067C310.218 175.067 297.811 179.207 297.811 179.207" stroke="#263238" stroke-width="1.232" stroke-linecap="round" stroke-linejoin="round"/>
<path d="M349.987 174.032C348.688 171.873 346.681 170.232 344.307 169.388C340.697 168.353 319.507 167.318 312.275 167.318C305.043 167.318 296.776 170.423 296.776 170.423" stroke="#263238" stroke-width="1.232" stroke-linecap="round" stroke-linejoin="round"/>
<path d="M441.426 286.649C445.411 299.181 450.227 311.434 455.84 323.326C465.142 342.964 464.107 362.072 461.002 366.212C457.897 370.352 447.056 371.374 447.056 371.374C447.056 371.374 419.681 357.945 414.001 343.987C408.322 330.028 416.059 292.846 424.325 289.779C429.824 287.836 435.596 286.78 441.426 286.649Z" fill="#263238" stroke="#263238" stroke-width="1.232" stroke-linecap="round" stroke-linejoin="round"/>
<path d="M358.253 327.466L336.558 331.075C336.558 331.075 329.326 321.774 322.094 321.219C314.862 320.665 301.433 320.184 301.433 320.184L304.008 273.171C304.008 273.171 275.598 280.97 273.504 282.005C271.41 283.04 263.648 262.884 263.648 262.884C263.648 262.884 224.384 367.752 222.314 376.536C220.245 385.32 224.902 396.162 232.17 404.429C239.439 412.695 266.814 412.72 268.884 412.72C270.954 412.72 283.348 417.377 289.545 417.894C295.742 418.412 311.721 412.72 311.721 412.72C311.721 412.72 291.06 534.688 288.485 543.94C285.91 553.193 284.346 559.956 284.346 559.956H514.73C514.73 559.956 505.428 508.299 499.749 485.568C494.069 462.838 483.732 406.535 483.215 399.821C482.698 393.107 482.18 375.538 475.983 368.824C469.786 362.109 442.46 349.161 440.908 348.656C439.356 348.151 385.616 324.878 385.616 324.878L358.253 327.466Z" fill="#F6F6F6" stroke="#263238" stroke-width="1.232" stroke-linecap="round" stroke-linejoin="round"/>
<path d="M300.078 387.908L299.881 397.714" stroke="#263238" stroke-width="1.232" stroke-linecap="round" stroke-linejoin="round"/>
<path d="M301.433 321.774L300.177 383.251" stroke="#263238" stroke-width="1.232" stroke-linecap="round" stroke-linejoin="round"/>
<path d="M301.433 335.732L309.183 392.035" stroke="#263238" stroke-width="1.232" stroke-linecap="round" stroke-linejoin="round"/>
<path d="M261.048 349.987L260.186 359.337" stroke="#263238" stroke-width="1.232" stroke-linecap="round" stroke-linejoin="round"/>
<path d="M265.939 296.74L261.788 342.015" stroke="#263238" stroke-width="1.232" stroke-linecap="round" stroke-linejoin="round"/>
<path d="M344.578 345.379L347.929 350.713" stroke="#263238" stroke-width="1.232" stroke-linecap="round" stroke-linejoin="round"/>
<path d="M336.558 332.628L343.05 342.964" stroke="#263238" stroke-width="1.232" stroke-linecap="round" stroke-linejoin="round"/>
<path d="M425.521 506.155C423.857 520.939 423.857 552.687 423.857 552.687" stroke="#263238" stroke-width="1.232" stroke-linecap="round" stroke-linejoin="round"/>
<path d="M426.37 425.04C426.592 427.59 426.802 430.19 426.962 432.839C428.28 454.004 428.095 480.887 426.728 496.262" stroke="#263238" stroke-width="1.232" stroke-linecap="round" stroke-linejoin="round"/>
<path d="M420.765 386.848C420.765 386.848 423.833 400.844 425.816 419.397" stroke="#263238" stroke-width="1.232" stroke-linecap="round" stroke-linejoin="round"/>
<path d="M474.468 496.964C472.965 522.368 473.975 559.919 473.975 559.919" stroke="#263238" stroke-width="1.232" stroke-linecap="round" stroke-linejoin="round"/>
<path d="M466.743 414.248C466.743 414.248 479.655 460.743 476.032 481.404C475.564 484.114 475.17 487.465 474.862 491.26" stroke="#263238" stroke-width="1.232" stroke-linecap="round" stroke-linejoin="round"/>
<path d="M315.971 475.145C316.866 472.695 317.615 470.194 318.213 467.655" stroke="#263238" stroke-width="1.232" stroke-linecap="round" stroke-linejoin="round"/>
<path d="M292.354 524.561C292.354 524.561 306.361 499.477 314.012 480.345" stroke="#263238" stroke-width="1.232" stroke-linecap="round" stroke-linejoin="round"/>
<path d="M381.501 305.253C381.501 305.253 375.822 298.021 373.752 302.148C371.682 306.275 353.091 321.774 353.091 321.774C353.091 321.774 351.021 338.307 353.609 347.646C356.196 356.984 357.736 363.662 358.771 365.214C359.806 366.766 372.199 349.198 378.396 348.681C384.593 348.163 388.733 349.716 393.378 352.808C398.022 355.9 416.022 384.187 416.022 384.187C416.022 384.187 427.997 366.754 428.514 363.662C429.032 360.569 432.124 357.982 433.676 356.947C435.229 355.912 452.785 362.627 455.852 364.179C458.92 365.732 461.532 377.091 462.567 372.963C463.602 368.836 448.103 353.325 442.941 345.576C437.779 337.827 430.03 321.811 422.28 317.684C414.531 313.556 381.501 305.253 381.501 305.253Z" fill="#F6F6F6" stroke="#263238" stroke-width="1.232" stroke-linecap="round" stroke-linejoin="round"/>
<path d="M380.466 276.325L376.857 313.519C376.857 313.519 400.609 353.806 403.714 356.91C406.819 360.015 414.051 384.803 418.178 379.086C422.305 373.37 425.41 352.216 425.41 343.95C425.41 335.683 426.962 296.949 426.962 296.949C426.962 296.949 404.786 294.879 397 290.235C389.213 285.59 380.466 276.325 380.466 276.325Z" fill="#F6F6F6" stroke="#263238" stroke-width="1.232" stroke-linecap="round" stroke-linejoin="round"/>
<path d="M380.466 276.325L380.035 280.81L425.619 333.133C426.05 318.755 426.925 296.986 426.925 296.986C426.925 296.986 404.749 294.916 396.963 290.272C389.176 285.627 380.466 276.325 380.466 276.325Z" fill="#263238" stroke="#263238" stroke-width="1.232" stroke-linecap="round" stroke-linejoin="round"/>
<path d="M427.997 400.819L433.676 436.461L474.48 441.105L467.248 408.051L427.997 400.819Z" fill="#F6F6F6" stroke="#263238" stroke-width="1.232" stroke-linecap="round" stroke-linejoin="round"/>
<path d="M422.317 185.921C422.317 185.921 417.143 173.01 397.517 182.816C377.891 192.623 371.165 223.633 371.165 230.864C371.165 238.096 368.59 246.4 373.296 246.4C378.002 246.4 383.632 232.959 387.242 227.797C390.852 222.635 419.792 209.206 425.989 209.723C432.186 210.241 453.881 237.616 453.881 237.616L454.399 254.149C454.399 254.149 472.484 246.4 476.094 232.454C479.704 218.508 461.113 192.155 445.097 183.888C429.081 175.622 422.317 185.921 422.317 185.921Z" fill="#263238" stroke="#263238" stroke-width="1.232" stroke-linecap="round" stroke-linejoin="round"/>
<path d="M378.914 237.061C378.914 237.061 376.856 225.69 371.165 230.901C365.473 236.113 368.072 256.773 371.682 258.794C375.292 260.814 377.842 251.562 377.842 251.562L378.914 237.061Z" fill="#F6F6F6" stroke="#263238" stroke-width="1.232" stroke-linecap="round" stroke-linejoin="round"/>
<path d="M377.891 225.69C377.891 225.69 376.857 259.792 376.857 268.576C376.857 277.36 378.396 283.04 392.355 293.364C406.314 303.688 415.591 306.288 424.892 302.665C434.194 299.043 447.068 290.272 449.175 283.557C451.282 276.843 457.442 238.614 459.031 233.957C460.62 229.3 429.549 204.512 427.504 202.455C426.257 201.219 424.6 200.482 422.847 200.385C422.847 200.385 414.593 205.547 400.129 212.779C385.665 220.011 382.043 222.635 382.043 222.635C382.043 222.635 378.914 237.061 377.891 225.69Z" fill="#F6F6F6" stroke="#263238" stroke-width="1.232" stroke-linecap="round" stroke-linejoin="round"/>
<path d="M407.792 229.288C407.546 231.752 406.314 233.55 405.032 233.427C403.751 233.304 402.913 231.234 403.16 228.819C403.406 226.405 404.638 224.557 405.919 224.68C407.201 224.803 408.075 226.873 407.792 229.288Z" fill="#263238"/>
<path d="M441.426 235.509C441.179 237.973 439.947 239.772 438.678 239.649C437.409 239.525 436.559 237.456 436.806 235.041C437.052 232.626 438.272 230.778 439.553 230.914C440.834 231.049 441.672 233.094 441.426 235.509Z" fill="#263238"/>
<path d="M396.482 220.011C398.895 218.015 401.809 216.72 404.906 216.266C408.004 215.812 411.167 216.217 414.051 217.436" stroke="#263238" stroke-width="1.232" stroke-linecap="round" stroke-linejoin="round"/>
<path d="M453.302 232.922C447.623 224.15 436.264 225.69 436.264 225.69C436.264 225.69 432.641 231.85 432.124 236.027" stroke="#263238" stroke-width="1.232" stroke-linecap="round" stroke-linejoin="round"/>
<path d="M425.927 236.027C415.701 232.331 383.731 239.883 377.436 241.435C377.152 251.611 376.857 263.808 376.857 268.539C376.857 277.311 378.396 283.003 392.355 293.327C406.314 303.651 415.591 306.251 424.892 302.628C434.194 299.006 447.068 290.235 449.175 283.52C450.308 279.824 452.698 266.617 454.867 254.691C448.682 249.85 434.6 239.18 425.927 236.027Z" fill="#F6F6F6" stroke="#263238" stroke-width="1.232" stroke-linecap="round" stroke-linejoin="round"/>
<path d="M381.501 249.973C381.501 249.973 399.587 245.328 415.085 246.363" stroke="#263238" stroke-width="1.232" stroke-linecap="round" stroke-linejoin="round"/>
<path d="M398.047 263.044L405.784 262.884" stroke="#263238" stroke-width="1.232" stroke-linecap="round" stroke-linejoin="round"/>
<path d="M379.949 263.402L393.402 263.143" stroke="#263238" stroke-width="1.232" stroke-linecap="round" stroke-linejoin="round"/>
<path d="M448.657 273.738L437.803 270.633" stroke="#263238" stroke-width="1.232" stroke-linecap="round" stroke-linejoin="round"/>
<path d="M442.978 252.043L451.762 256.17" stroke="#263238" stroke-width="1.232" stroke-linecap="round" stroke-linejoin="round"/>
<path d="M380.466 274.256C380.466 274.256 390.803 277.865 396.482 277.865" stroke="#263238" stroke-width="1.232" stroke-linecap="round" stroke-linejoin="round"/>
<path d="M454.867 254.728C454.867 254.728 460.534 248.42 460.534 256.17C460.534 263.919 451.245 272.186 451.245 272.186L454.867 254.728Z" fill="#F6F6F6" stroke="#263238" stroke-width="1.232" stroke-linecap="round" stroke-linejoin="round"/>
<path d="M157.696 327.638C157.304 327.636 156.915 327.561 156.55 327.416L92.0427 301.717C91.283 301.415 90.6745 300.823 90.3511 300.072C90.0276 299.321 90.0157 298.472 90.3179 297.713C90.6202 296.953 91.2118 296.345 91.9627 296.021C92.7136 295.698 93.5622 295.686 94.3219 295.988L158.817 321.7C159.48 321.966 160.03 322.454 160.372 323.081C160.715 323.708 160.829 324.434 160.695 325.136C160.561 325.837 160.188 326.47 159.638 326.927C159.089 327.383 158.398 327.635 157.684 327.638H157.696Z" fill="#F6F6F6" stroke="#263238" stroke-width="1.232" stroke-linecap="round" stroke-linejoin="round"/>
<path d="M94.3219 295.988C93.5622 295.686 92.7136 295.698 91.9627 296.021C91.2118 296.345 90.6202 296.953 90.3179 297.713C90.0157 298.472 90.0276 299.321 90.3511 300.072C90.6745 300.823 91.283 301.415 92.0427 301.717L118.272 312.164C118.687 311.097 119.312 310.124 120.109 309.303C120.907 308.482 121.862 307.829 122.917 307.384L94.3219 295.988Z" fill="#F6F6F6" stroke="#263238" stroke-width="1.232" stroke-linecap="round" stroke-linejoin="round"/>
<path d="M186.217 98.252C189.983 92.658 191.566 85.8763 190.664 79.193C187.476 74.5514 183.488 70.5134 178.886 67.2672C179.835 67.9571 178.763 78.1211 178.763 79.5872C178.763 81.2874 177.531 90.8723 178.886 91.9072C181.51 93.8048 183.963 95.9278 186.217 98.252Z" fill="#263238" stroke="#263238" stroke-width="1.232" stroke-linecap="round" stroke-linejoin="round"/>
<path d="M187.634 277.705C181.621 265.447 166.69 256.958 155.749 249.813C140.202 239.673 124.025 230.507 108.699 220.035C100.765 214.614 89.5171 207.715 83.8499 198.66C83.8499 198.66 80.4127 210.623 81.6816 216.955C81.8911 218.002 82.1251 219.074 82.3592 220.109C83.3105 222.08 84.5023 223.926 85.9074 225.604C96.1823 238.121 111.533 246.831 125.073 255.295C140.719 265.065 156.932 274.219 171.556 285.504C175.848 288.652 179.811 292.226 183.383 296.173C185.229 294.21 186.747 291.964 187.88 289.52C188.339 288.345 188.714 287.139 189.001 285.91C189.1 285.59 189.186 285.331 189.272 285.122C189.358 284.912 189.272 284.481 189.272 284.173C189.178 281.927 188.62 279.725 187.634 277.705Z" fill="#263238" stroke="#263238" stroke-width="1.232" stroke-linecap="round" stroke-linejoin="round"/>
<path d="M183.396 292.588H183.124L107.874 286.046C107.469 286.011 107.076 285.897 106.715 285.71C106.355 285.523 106.035 285.267 105.774 284.956C105.512 284.646 105.315 284.287 105.192 283.9C105.069 283.513 105.024 283.105 105.059 282.701C105.094 282.296 105.208 281.903 105.395 281.542C105.582 281.182 105.838 280.862 106.148 280.601C106.459 280.339 106.818 280.142 107.205 280.019C107.592 279.896 107.999 279.851 108.404 279.886L183.654 286.44C184.471 286.474 185.241 286.832 185.794 287.434C186.348 288.035 186.639 288.832 186.605 289.649C186.571 290.466 186.213 291.236 185.611 291.789C185.009 292.343 184.212 292.634 183.396 292.6V292.588Z" fill="#F6F6F6" stroke="#263238" stroke-width="1.232" stroke-linecap="round" stroke-linejoin="round"/>
<path d="M108.416 279.886C107.599 279.816 106.788 280.073 106.161 280.601C105.533 281.129 105.141 281.884 105.071 282.701C105.001 283.518 105.258 284.329 105.786 284.956C106.314 285.584 107.069 285.976 107.886 286.046L140.928 288.916C141.019 286.827 141.495 284.771 142.333 282.855L108.416 279.886Z" fill="#F6F6F6" stroke="#263238" stroke-width="1.232" stroke-linecap="round" stroke-linejoin="round"/>
<path d="M165.162 272.026C164.891 272.025 164.622 271.988 164.361 271.915L140.054 265.373C139.265 265.16 138.592 264.643 138.184 263.935C137.777 263.227 137.667 262.386 137.879 261.597C138.092 260.808 138.609 260.135 139.317 259.727C140.025 259.32 140.866 259.21 141.655 259.422L165.963 265.964C166.691 266.153 167.324 266.601 167.744 267.225C168.165 267.848 168.342 268.604 168.244 269.349C168.145 270.095 167.778 270.778 167.21 271.271C166.642 271.764 165.914 272.033 165.162 272.026Z" fill="#F6F6F6" stroke="#263238" stroke-width="1.232" stroke-linecap="round" stroke-linejoin="round"/>
<path d="M143.664 256.133C143.208 256.132 142.758 256.031 142.345 255.837L125.516 247.891C124.778 247.541 124.208 246.912 123.933 246.143C123.659 245.374 123.7 244.527 124.05 243.788C124.4 243.05 125.028 242.48 125.798 242.205C126.567 241.931 127.414 241.972 128.153 242.322L144.982 250.269C145.614 250.568 146.126 251.073 146.433 251.702C146.74 252.331 146.823 253.046 146.67 253.728C146.517 254.411 146.135 255.021 145.589 255.458C145.042 255.895 144.363 256.133 143.664 256.133Z" fill="#F6F6F6" stroke="#263238" stroke-width="1.232" stroke-linecap="round" stroke-linejoin="round"/>
<path d="M182.262 415.935C182.262 415.935 186.66 409.702 186.66 404.392C186.654 404.326 186.654 404.26 186.66 404.195C183.58 388.363 170.866 377.251 157.56 368.195C139.931 356.196 120.243 347.461 102.946 334.931C96.7859 330.496 90.3918 325.297 86.8067 318.472C86.6835 318.263 86.5726 318.041 86.4618 317.819C85.8123 316.406 85.2647 314.949 84.8232 313.458C84.5891 312.731 84.6261 311.918 84.4043 311.203C84.2934 310.883 84.2072 312.435 84.1333 314.764C84.0594 317.092 84.0347 319.975 84.0224 322.722C83.8745 327.65 83.6774 332.677 84.6507 337.359C86.0552 344.122 90.9585 349.617 95.9974 354.077C111.903 368.159 132.268 376.82 150.205 387.981C160.985 394.782 174.944 403.936 182.262 415.935Z" fill="#263238" stroke="#263238" stroke-width="1.232" stroke-linecap="round" stroke-linejoin="round"/>
<path d="M127.303 363.625H127.068L108.835 362.208C108.43 362.176 108.036 362.066 107.675 361.882C107.313 361.698 106.991 361.444 106.727 361.136C106.195 360.513 105.931 359.705 105.995 358.888C106.059 358.071 106.444 357.313 107.067 356.78C107.69 356.248 108.499 355.984 109.315 356.048L127.537 357.452C127.941 357.468 128.339 357.563 128.706 357.732C129.074 357.901 129.405 358.14 129.68 358.437C129.955 358.734 130.169 359.082 130.31 359.462C130.451 359.842 130.515 360.245 130.5 360.649C130.484 361.054 130.389 361.451 130.22 361.819C130.051 362.187 129.812 362.518 129.515 362.793C129.218 363.068 128.87 363.282 128.49 363.423C128.111 363.563 127.707 363.628 127.303 363.612V363.625Z" fill="#F6F6F6" stroke="#263238" stroke-width="1.232" stroke-linecap="round" stroke-linejoin="round"/>
<path d="M117.496 342.595H117.2L91.9688 340.254C91.1519 340.179 90.3984 339.782 89.8739 339.151C89.3494 338.521 89.097 337.707 89.1722 336.89C89.2473 336.074 89.6439 335.32 90.2746 334.796C90.9054 334.271 91.7187 334.019 92.5355 334.094L117.767 336.435C118.584 336.47 119.353 336.829 119.905 337.433C120.457 338.036 120.747 338.833 120.711 339.65C120.675 340.467 120.316 341.236 119.713 341.788C119.11 342.34 118.313 342.63 117.496 342.595Z" fill="#F6F6F6" stroke="#263238" stroke-width="1.232" stroke-linecap="round" stroke-linejoin="round"/>
<path d="M190.159 211.978C189.997 209.664 189.32 207.416 188.176 205.399C184.628 198.894 178.776 193.51 173.392 188.558C165.729 181.498 157.573 175.006 149.368 168.575C132.576 155.441 115.056 143.097 99.0651 128.978C95.2213 125.664 90.8353 121.968 87.6814 117.668C87.6814 117.668 84.2072 131.22 87.5829 141.372C87.7553 141.877 87.9032 142.358 88.0387 142.838C89.7376 144.796 91.5388 146.663 93.4349 148.431C99.3536 154.085 105.559 159.43 112.026 164.447C128.362 177.433 145.29 189.642 161.417 202.898C168.414 208.664 176.57 214.861 182.681 222.265C182.878 222.13 183.063 221.982 183.248 221.834C185.262 220.36 187.023 218.566 188.459 216.524C188.957 215.659 189.398 214.762 189.777 213.838C189.907 213.552 190.06 213.276 190.233 213.013L190.159 211.978Z" fill="#263238" stroke="#263238" stroke-width="1.232" stroke-linecap="round" stroke-linejoin="round"/>
<path d="M84.7739 192.093C84.0719 192.086 83.3934 191.84 82.8508 191.394C82.3082 190.949 81.934 190.331 81.7902 189.644C81.6465 188.957 81.7418 188.242 82.0604 187.616C82.3789 186.99 82.9017 186.492 83.5419 186.204L130.752 165.174C131.126 164.979 131.537 164.863 131.958 164.833C132.379 164.803 132.802 164.86 133.2 165.001C133.598 165.141 133.963 165.362 134.272 165.649C134.581 165.936 134.828 166.284 134.997 166.671C135.166 167.057 135.254 167.475 135.256 167.897C135.257 168.319 135.171 168.737 135.004 169.124C134.837 169.512 134.592 169.861 134.285 170.15C133.977 170.439 133.613 170.662 133.216 170.804L86.0306 191.835C85.6328 192.003 85.2058 192.091 84.7739 192.093Z" fill="#F6F6F6" stroke="#263238" stroke-width="1.232" stroke-linecap="round" stroke-linejoin="round"/>
<path d="M109.155 174.784L83.5173 186.204C82.877 186.492 82.3543 186.99 82.0357 187.616C81.7171 188.242 81.6218 188.957 81.7656 189.644C81.9093 190.331 82.2835 190.949 82.8261 191.394C83.3688 191.84 84.0473 192.086 84.7493 192.093C85.1728 192.088 85.5912 192 85.9813 191.835L113.344 179.65L109.155 174.784Z" fill="#F6F6F6" stroke="#263238" stroke-width="1.232" stroke-linecap="round" stroke-linejoin="round"/>
<path d="M180.118 236.027H179.971L108.933 232.762C108.117 232.724 107.348 232.364 106.797 231.759C106.246 231.155 105.958 230.357 105.995 229.54C106.033 228.723 106.393 227.955 106.997 227.404C107.602 226.853 108.4 226.564 109.217 226.602L180.254 229.879C181.071 229.897 181.847 230.239 182.412 230.829C182.977 231.419 183.284 232.21 183.266 233.027C183.248 233.844 182.906 234.62 182.316 235.185C181.726 235.75 180.935 236.057 180.118 236.039V236.027Z" fill="#F6F6F6" stroke="#263238" stroke-width="1.232" stroke-linecap="round" stroke-linejoin="round"/>
<path d="M105.952 229.534C105.932 229.939 105.992 230.343 106.129 230.724C106.266 231.106 106.476 231.456 106.748 231.756C107.021 232.056 107.35 232.299 107.716 232.472C108.083 232.644 108.48 232.743 108.884 232.762L143.516 234.351C143.999 232.336 144.153 230.256 143.972 228.191L109.168 226.589C108.763 226.571 108.359 226.633 107.978 226.771C107.597 226.909 107.248 227.121 106.949 227.395C106.65 227.668 106.409 227.998 106.238 228.365C106.066 228.732 105.969 229.129 105.952 229.534Z" fill="#F6F6F6" stroke="#263238" stroke-width="1.232" stroke-linecap="round" stroke-linejoin="round"/>
<path d="M190.233 212.964C190.06 213.226 189.907 213.502 189.777 213.789C189.398 214.712 188.957 215.61 188.459 216.475C187.023 218.517 185.262 220.31 183.248 221.785C183.063 221.933 182.878 222.08 182.681 222.216C177.248 226.429 170.965 229.608 164.879 232.749C148.431 241.238 131.491 248.938 116.264 259.57C101.603 269.808 87.5582 283.631 84.7739 302.099C84.4906 304.008 84.4043 302.099 84.3181 304.058L83.9854 308C83.9854 308 82.9875 325.605 83.6528 333.244C84.0811 337.885 85.6837 342.341 88.3098 346.192C88.3098 346.192 87.6445 343.864 86.3139 336.89C84.9834 329.917 86.819 318.484 86.819 318.484C87.3971 316.832 88.0633 315.211 88.8149 313.63C97.4389 295.581 115.512 283.656 132.378 274.206C148.148 265.324 165.642 258.745 180.525 248.433C184.615 245.612 189.26 242.088 190.098 236.864C190.184 236.322 190.258 235.768 190.332 235.213C191.206 228.142 190.763 219.998 190.233 212.964Z" fill="#016FC1" stroke="#263238" stroke-width="1.232" stroke-linecap="round" stroke-linejoin="round"/>
<path d="M84.3057 386.528C83.4889 386.544 82.699 386.235 82.1098 385.669C81.5207 385.103 81.1805 384.326 81.1641 383.509C81.1478 382.692 81.4566 381.902 82.0227 381.313C82.5888 380.724 83.3657 380.384 84.1826 380.368L155.639 377.559C156.043 377.542 156.447 377.606 156.827 377.746C157.206 377.886 157.555 378.099 157.853 378.374C158.15 378.648 158.39 378.979 158.56 379.346C158.73 379.714 158.826 380.111 158.842 380.515C158.858 380.92 158.794 381.324 158.654 381.704C158.515 382.083 158.301 382.432 158.027 382.729C157.752 383.027 157.422 383.267 157.054 383.437C156.687 383.607 156.289 383.702 155.885 383.719L84.4289 386.528H84.3057Z" fill="#F6F6F6" stroke="#263238" stroke-width="1.232" stroke-linecap="round" stroke-linejoin="round"/>
<path d="M119.8 378.975L84.1826 380.368C83.3657 380.384 82.5888 380.724 82.0227 381.313C81.4566 381.903 81.1478 382.692 81.1641 383.509C81.1805 384.326 81.5207 385.103 82.1098 385.669C82.699 386.235 83.4889 386.544 84.3057 386.528H84.4289L122.338 385.037C122.14 382.802 121.253 380.684 119.8 378.975Z" fill="#F6F6F6" stroke="#263238" stroke-width="1.232" stroke-linecap="round" stroke-linejoin="round"/>
<path d="M189.272 285.06C189.186 285.27 189.1 285.528 189.001 285.849C188.714 287.077 188.339 288.283 187.88 289.458C186.753 291.924 185.234 294.192 183.383 296.173C176.706 303.491 166 308.407 158.016 312.546C142.505 320.603 126.44 327.687 111.693 337.186C97.7099 346.155 82.852 358.487 80.7576 376.08C79.8705 383.472 80.3633 391.283 80.4126 398.749C80.3449 400.825 80.4149 402.904 80.6221 404.971C81.309 399.666 82.4382 394.428 83.9977 389.312C88.3221 380.38 96.1576 372.914 103.907 367.136C117.631 356.898 133.315 349.555 148.579 341.954C160.628 335.954 174.747 330.004 183.962 319.84C187.097 316.604 188.964 312.35 189.223 307.852C189.223 307.409 189.223 306.977 189.223 306.534C189.621 299.382 189.637 292.214 189.272 285.06Z" fill="#016FC1" stroke="#263238" stroke-width="1.232" stroke-linecap="round" stroke-linejoin="round"/>
<path d="M81.1518 407.312C84.5522 418.165 94.3712 425.792 103.944 431.028C103.217 430.633 104.067 419.94 104.067 418.708C104.067 417.476 105.114 407.028 103.944 406.388C96.9338 402.581 88.704 396.778 83.9978 389.312C82.4409 394.412 81.3117 399.634 80.6221 404.921C80.7279 405.732 80.9052 406.532 81.1518 407.312Z" fill="#263238" stroke="#263238" stroke-width="1.232" stroke-linecap="round" stroke-linejoin="round"/>
<path d="M102.133 149.417L115.389 150.649C115.411 148.565 115.709 146.494 116.276 144.489L102.724 143.257C102.32 143.22 101.912 143.263 101.524 143.383C101.136 143.503 100.776 143.699 100.463 143.959C100.151 144.218 99.8928 144.537 99.7037 144.897C99.5145 145.256 99.398 145.649 99.3608 146.054C99.3236 146.458 99.3664 146.866 99.4868 147.254C99.6072 147.642 99.8028 148.002 100.063 148.314C100.322 148.627 100.641 148.885 101 149.074C101.36 149.263 101.753 149.38 102.157 149.417H102.133Z" fill="#F6F6F6" stroke="#263238" stroke-width="1.232" stroke-linecap="round" stroke-linejoin="round"/>
<path d="M181.523 121.968H181.104L86.7328 110.289C86.3283 110.239 85.9375 110.111 85.5827 109.91C85.2279 109.71 84.9161 109.442 84.665 109.121C84.4139 108.8 84.2284 108.433 84.1192 108.04C84.01 107.648 83.9792 107.237 84.0286 106.833C84.0779 106.428 84.2064 106.038 84.4068 105.683C84.6072 105.328 84.8755 105.016 85.1964 104.765C85.5173 104.514 85.8845 104.328 86.2771 104.219C86.6696 104.11 87.0798 104.079 87.4843 104.129L181.892 115.808C182.297 115.832 182.693 115.936 183.057 116.113C183.421 116.29 183.747 116.538 184.016 116.841C184.285 117.144 184.492 117.497 184.624 117.88C184.756 118.263 184.812 118.668 184.788 119.073C184.763 119.477 184.66 119.873 184.483 120.237C184.305 120.602 184.058 120.928 183.755 121.197C183.452 121.465 183.099 121.672 182.716 121.804C182.333 121.937 181.927 121.992 181.523 121.968Z" fill="#F6F6F6" stroke="#263238" stroke-width="1.232" stroke-linecap="round" stroke-linejoin="round"/>
<path d="M181.892 115.808L138.551 110.436C138.175 112.517 137.472 114.526 136.469 116.387L181.104 121.968H181.486C181.89 121.992 182.296 121.937 182.679 121.804C183.062 121.672 183.415 121.465 183.718 121.197C184.021 120.928 184.268 120.602 184.446 120.237C184.623 119.873 184.726 119.477 184.751 119.073C184.775 118.668 184.719 118.263 184.587 117.88C184.455 117.497 184.248 117.144 183.979 116.841C183.71 116.538 183.385 116.29 183.02 116.113C182.656 115.936 182.26 115.832 181.856 115.808H181.892Z" fill="#F6F6F6" stroke="#263238" stroke-width="1.232" stroke-linecap="round" stroke-linejoin="round"/>
<path d="M93.1762 93.4842C92.3593 93.5168 91.5629 93.2237 90.9622 92.6692C90.3615 92.1147 90.0057 91.3442 89.973 90.5274C89.9403 89.7105 90.2335 88.9141 90.788 88.3134C91.3425 87.7127 92.1129 87.3568 92.9298 87.3242L184.098 79.8459C184.915 79.7789 185.725 80.0392 186.35 80.5694C186.975 81.0997 187.363 81.8565 187.43 82.6734C187.497 83.4902 187.237 84.3002 186.707 84.9252C186.177 85.5502 185.42 85.9389 184.603 86.0059L93.4349 93.4842H93.1762Z" fill="#F6F6F6" stroke="#263238" stroke-width="1.232" stroke-linecap="round" stroke-linejoin="round"/>
<path d="M184.073 79.8582L142.284 83.2832C142.92 84.1437 143.372 85.126 143.611 86.1689C143.851 87.2118 143.873 88.2929 143.676 89.3446L184.578 85.9936C184.983 85.9604 185.377 85.8479 185.738 85.6625C186.099 85.4771 186.42 85.2224 186.682 84.9129C186.945 84.6035 187.144 84.2453 187.268 83.8589C187.392 83.4726 187.439 83.0655 187.406 82.661C187.373 82.2566 187.26 81.8626 187.075 81.5016C186.889 81.1406 186.634 80.8197 186.325 80.5571C186.016 80.2946 185.657 80.0955 185.271 79.9714C184.885 79.8473 184.478 79.8004 184.073 79.8336V79.8582Z" fill="#F6F6F6" stroke="#263238" stroke-width="1.232" stroke-linecap="round" stroke-linejoin="round"/>
<path d="M146.004 139.29C145.836 139.308 145.667 139.308 145.499 139.29L88.0141 129.951C87.207 129.821 86.4849 129.375 86.0067 128.712C85.5284 128.049 85.3332 127.223 85.4639 126.416C85.5946 125.608 86.0405 124.886 86.7036 124.408C87.3667 123.93 88.1926 123.735 88.9997 123.865L146.497 133.216C147.314 133.282 148.071 133.669 148.603 134.293C149.134 134.916 149.396 135.726 149.331 136.543C149.265 137.359 148.878 138.117 148.254 138.648C147.631 139.18 146.821 139.442 146.004 139.376V139.29Z" fill="#F6F6F6" stroke="#263238" stroke-width="1.232" stroke-linecap="round" stroke-linejoin="round"/>
<path d="M146.497 133.167L115.697 128.165C114.944 128.941 114.356 129.862 113.968 130.872C113.581 131.883 113.402 132.961 113.443 134.042L145.475 139.241C145.642 139.259 145.812 139.259 145.98 139.241C146.797 139.306 147.606 139.044 148.23 138.513C148.854 137.981 149.241 137.224 149.306 136.407C149.371 135.59 149.11 134.781 148.578 134.157C148.047 133.533 147.289 133.146 146.472 133.081L146.497 133.167Z" fill="#F6F6F6" stroke="#263238" stroke-width="1.232" stroke-linecap="round" stroke-linejoin="round"/>
<path d="M94.7285 104.929C96.3548 102.614 98.1855 100.45 100.199 98.4614C101.517 97.2294 100.322 88.0387 100.322 86.1414C100.322 83.2339 100.322 80.3387 100.322 77.4312C100.322 76.8768 99.9398 74.1048 100.235 73.8214C94.3911 79.5962 89.9269 86.6168 87.1763 94.3589C85.3551 99.6352 84.3699 105.164 84.2565 110.744C83.8992 109.007 83.8745 110.535 84.1579 115.34C83.9485 122.042 82.9259 129.693 84.392 136.124C85.0832 138.62 86.3489 140.919 88.088 142.838C87.9525 142.358 87.8046 141.877 87.6321 141.372C84.2565 131.233 87.7307 117.668 87.7307 117.668C89.519 113.145 91.8701 108.865 94.7285 104.929Z" fill="#016FC1" stroke="#263238" stroke-width="1.232" stroke-linecap="round" stroke-linejoin="round"/>
<path d="M86.6466 217.337C85.9225 217.336 85.2219 217.08 84.6678 216.614C84.1136 216.148 83.7414 215.502 83.6164 214.789C83.4914 214.076 83.6217 213.341 83.9843 212.715C84.3469 212.088 84.9188 211.609 85.5994 211.362L158.041 185.182C158.798 184.941 159.618 185.001 160.331 185.35C161.045 185.699 161.595 186.31 161.869 187.056C162.142 187.801 162.117 188.624 161.799 189.351C161.48 190.079 160.893 190.655 160.16 190.96L87.7184 217.128C87.3759 217.259 87.0132 217.33 86.6466 217.337Z" fill="#F6F6F6" stroke="#263238" stroke-width="1.232" stroke-linecap="round" stroke-linejoin="round"/>
<path d="M121.488 198.352L85.5994 211.362C84.9188 211.609 84.3469 212.088 83.9843 212.715C83.6217 213.341 83.4914 214.076 83.6164 214.789C83.7414 215.502 84.1136 216.148 84.6678 216.614C85.2219 217.08 85.9225 217.336 86.6466 217.337C87.0035 217.335 87.3575 217.272 87.6938 217.152L123.804 204.105C123.017 203.377 122.402 202.483 122.001 201.488C121.601 200.493 121.425 199.422 121.488 198.352Z" fill="#F6F6F6" stroke="#263238" stroke-width="1.232" stroke-linecap="round" stroke-linejoin="round"/>
<path d="M172.172 440.28C171.867 440.276 171.565 440.231 171.273 440.144L98.8311 418.178C98.0485 417.941 97.3921 417.403 97.0063 416.682C96.6204 415.961 96.5367 415.116 96.7736 414.334C97.0105 413.551 97.5486 412.895 98.2694 412.509C98.9903 412.123 99.8349 412.04 100.617 412.276L173.059 434.243C173.773 434.451 174.387 434.911 174.789 435.536C175.191 436.162 175.352 436.912 175.244 437.648C175.136 438.383 174.766 439.055 174.201 439.539C173.636 440.023 172.916 440.286 172.172 440.28Z" fill="#F6F6F6" stroke="#263238" stroke-width="1.232" stroke-linecap="round" stroke-linejoin="round"/>
<path d="M129.138 420.925L100.617 412.301C99.8349 412.064 98.9903 412.148 98.2694 412.534C97.5486 412.92 97.0105 413.576 96.7736 414.359C96.5367 415.141 96.6204 415.986 97.0063 416.707C97.3921 417.427 98.0485 417.966 98.8311 418.202L126.157 426.481C126.671 424.409 127.696 422.499 129.138 420.925Z" fill="#F6F6F6" stroke="#263238" stroke-width="1.232" stroke-linecap="round" stroke-linejoin="round"/>
<path d="M87.1024 408.494C86.2855 408.516 85.4937 408.211 84.9011 407.649C84.3084 407.086 83.9636 406.311 83.9423 405.494C83.9211 404.677 84.2252 403.886 84.7878 403.293C85.3504 402.7 86.1254 402.356 86.9422 402.334L179.478 397.197C180.295 397.151 181.096 397.432 181.706 397.977C182.316 398.522 182.685 399.287 182.73 400.104C182.776 400.921 182.495 401.723 181.95 402.333C181.405 402.943 180.64 403.311 179.823 403.357L87.2749 408.507L87.1024 408.494Z" fill="#F6F6F6" stroke="#263238" stroke-width="1.232" stroke-linecap="round" stroke-linejoin="round"/>
<path d="M135.927 399.612L86.9422 402.334C86.1254 402.355 85.3504 402.7 84.7878 403.293C84.2252 403.886 83.9211 404.677 83.9423 405.494C83.9636 406.311 84.3084 407.086 84.9011 407.649C85.4937 408.211 86.2855 408.515 87.1024 408.494H87.2749L136.826 405.735C136.975 403.652 136.668 401.563 135.927 399.612Z" fill="#F6F6F6" stroke="#263238" stroke-width="1.232" stroke-linecap="round" stroke-linejoin="round"/>
<path d="M91.9688 340.241L105.213 341.473C105.243 339.391 105.541 337.32 106.1 335.313L92.5478 334.081C91.731 334.006 90.9177 334.259 90.2869 334.783C89.6562 335.308 89.2596 336.061 89.1845 336.878C89.1093 337.695 89.3617 338.508 89.8862 339.139C90.4107 339.77 91.1642 340.166 91.9811 340.241H91.9688Z" fill="#F6F6F6" stroke="#263238" stroke-width="1.232" stroke-linecap="round" stroke-linejoin="round"/>
<path d="M187.375 410.884C187.375 410.379 187.375 409.874 187.313 409.369V409.196C187.207 407.514 186.997 405.839 186.685 404.182C186.679 404.248 186.679 404.314 186.685 404.379C186.685 409.689 182.287 415.923 182.287 415.923C173.441 425.644 160.16 432.432 148.912 437.36C148.062 437.73 148.789 448.448 148.789 449.68C148.789 450.912 149.651 461.68 148.912 462C161.33 456.665 173.478 449.68 182.743 439.676C184.147 438.148 186.439 436.079 187.202 434.083C187.744 432.641 187.4 430.572 187.412 429.044C187.461 422.958 187.498 416.909 187.375 410.884Z" fill="#016FC1" stroke="#263238" stroke-width="1.232" stroke-linecap="round" stroke-linejoin="round"/>
<path d="M195.136 90.823C194.804 89.1992 194.368 87.5984 193.831 86.0306C193.005 83.6774 191.009 80.1416 190.664 79.193C191.566 85.8763 189.983 92.658 186.217 98.252C173.102 109.394 159.055 119.389 144.23 128.128C132.649 134.941 120.662 141.052 109.414 148.394C99.6565 154.764 89.7019 162.39 84.3304 173.034C78.4538 184.664 80.0923 199.473 80.4619 212.003C80.5174 214.808 81.1639 217.57 82.3592 220.109C82.1251 219.074 81.891 218.002 81.6816 216.955C80.4496 210.623 83.8499 198.66 83.8499 198.66C85.7637 194.708 88.255 191.062 91.2419 187.843C99.3978 178.837 110.079 172.357 120.49 166.295C132.612 159.224 144.772 152.189 156.612 144.649C162.525 140.879 168.365 136.998 174.069 132.933C179.428 129.114 185.342 125.331 189.974 120.613C198.007 112.42 197.292 101.369 195.136 90.823Z" fill="#016FC1" stroke="#263238" stroke-width="1.232" stroke-linecap="round" stroke-linejoin="round"/>
<path d="M218.064 501.399H211.904V554.991H218.064V501.399Z" fill="#F6F6F6" stroke="#263238" stroke-width="1.232" stroke-linecap="round" stroke-linejoin="round"/>
<path d="M221.76 485.999H235.928V540.848C235.928 542.328 235.34 543.748 234.293 544.794C233.247 545.841 231.827 546.429 230.347 546.429H227.329C225.851 546.426 224.434 545.836 223.39 544.79C222.346 543.744 221.76 542.326 221.76 540.848V485.999Z" fill="#F6F6F6" stroke="#263238" stroke-width="1.232" stroke-linecap="round" stroke-linejoin="round"/>
<path d="M223.263 494.18V538.384C223.263 539.116 223.407 539.841 223.688 540.518C223.969 541.194 224.38 541.809 224.898 542.326C225.417 542.843 226.032 543.253 226.709 543.532C227.386 543.811 228.112 543.954 228.844 543.953C229.576 543.954 230.302 543.811 230.979 543.532C231.656 543.253 232.271 542.843 232.79 542.326C233.308 541.809 233.719 541.194 234 540.518C234.281 539.841 234.425 539.116 234.425 538.384V494.18H223.263Z" fill="#93CE4E"/>
<path d="M235.583 488.057H222.031C221.498 488.057 220.988 487.845 220.611 487.469C220.234 487.092 220.023 486.581 220.023 486.049C220.023 485.516 220.234 485.005 220.611 484.629C220.988 484.252 221.498 484.04 222.031 484.04H235.583C236.116 484.04 236.626 484.252 237.003 484.629C237.38 485.005 237.591 485.516 237.591 486.049C237.591 486.581 237.38 487.092 237.003 487.469C236.626 487.845 236.116 488.057 235.583 488.057Z" fill="#F6F6F6" stroke="#263238" stroke-width="1.232" stroke-linecap="round" stroke-linejoin="round"/>
<path d="M243.505 485.999H257.673V540.848C257.673 542.328 257.085 543.748 256.038 544.794C254.992 545.841 253.572 546.429 252.092 546.429H249.073C247.593 546.429 246.174 545.841 245.127 544.794C244.08 543.748 243.492 542.328 243.492 540.848V485.999H243.505Z" fill="#F6F6F6" stroke="#263238" stroke-width="1.232" stroke-linecap="round" stroke-linejoin="round"/>
<path d="M245.02 494.18V538.384C245.02 539.861 245.607 541.277 246.651 542.322C247.695 543.366 249.112 543.953 250.589 543.953C251.321 543.954 252.047 543.811 252.724 543.532C253.401 543.253 254.016 542.843 254.534 542.326C255.053 541.809 255.464 541.194 255.745 540.518C256.025 539.841 256.17 539.116 256.17 538.384V494.18H245.02Z" fill="#93CE4E"/>
<path d="M257.328 488.057H243.776C243.513 488.057 243.252 488.005 243.009 487.904C242.766 487.803 242.546 487.655 242.36 487.468C242.175 487.281 242.028 487.06 241.928 486.816C241.829 486.573 241.778 486.312 241.78 486.049C241.778 485.785 241.829 485.525 241.928 485.281C242.028 485.037 242.175 484.816 242.36 484.629C242.546 484.443 242.766 484.295 243.009 484.194C243.252 484.092 243.513 484.04 243.776 484.04H257.328C257.86 484.04 258.371 484.252 258.748 484.629C259.124 485.005 259.336 485.516 259.336 486.049C259.336 486.581 259.124 487.092 258.748 487.469C258.371 487.845 257.86 488.057 257.328 488.057Z" fill="#F6F6F6" stroke="#263238" stroke-width="1.232" stroke-linecap="round" stroke-linejoin="round"/>
<path d="M265.25 485.999H279.418V540.848C279.418 542.328 278.83 543.748 277.783 544.794C276.736 545.841 275.317 546.429 273.837 546.429H270.818C269.34 546.426 267.924 545.836 266.88 544.79C265.836 543.744 265.25 542.326 265.25 540.848V485.999Z" fill="#F6F6F6" stroke="#263238" stroke-width="1.232" stroke-linecap="round" stroke-linejoin="round"/>
<path d="M266.765 494.18V538.384C266.765 539.861 267.352 541.277 268.396 542.322C269.44 543.366 270.857 543.953 272.334 543.953C273.066 543.954 273.791 543.811 274.468 543.532C275.145 543.253 275.761 542.843 276.279 542.326C276.798 541.809 277.209 541.194 277.489 540.518C277.77 539.841 277.915 539.116 277.915 538.384V494.18H266.765Z" fill="#93CE4E"/>
<path d="M279.073 488.057H265.521C264.988 488.057 264.477 487.845 264.101 487.469C263.724 487.092 263.513 486.581 263.513 486.049C263.513 485.516 263.724 485.005 264.101 484.629C264.477 484.252 264.988 484.04 265.521 484.04H279.073C279.605 484.04 280.116 484.252 280.493 484.629C280.869 485.005 281.081 485.516 281.081 486.049C281.081 486.581 280.869 487.092 280.493 487.469C280.116 487.845 279.605 488.057 279.073 488.057Z" fill="#F6F6F6" stroke="#263238" stroke-width="1.232" stroke-linecap="round" stroke-linejoin="round"/>
<path d="M283.976 495.855H206.976V505.095H283.976V495.855Z" fill="#F6F6F6" stroke="#263238" stroke-width="1.232" stroke-linecap="round" stroke-linejoin="round"/>
<path d="M283.976 550.679H206.976V559.919H283.976V550.679Z" fill="#F6F6F6" stroke="#263238" stroke-width="1.232" stroke-linecap="round" stroke-linejoin="round"/>
<path d="M371.386 493.354L371.3 466.016H342.705V493.933L323.794 552.478C323.528 553.329 323.465 554.231 323.611 555.112C323.758 555.992 324.109 556.825 324.636 557.544C325.164 558.264 325.853 558.849 326.648 559.253C327.444 559.657 328.323 559.868 329.215 559.87H384.655C385.547 559.868 386.426 559.657 387.222 559.253C388.017 558.849 388.706 558.264 389.234 557.544C389.761 556.825 390.112 555.992 390.259 555.112C390.405 554.231 390.342 553.329 390.076 552.478L371.386 493.354Z" fill="#F6F6F6" stroke="#263238" stroke-width="1.232" stroke-linecap="round" stroke-linejoin="round"/>
<path d="M370.598 504.405H343.556L329.474 549.287C329.234 550.005 329.167 550.77 329.277 551.519C329.387 552.268 329.672 552.981 330.109 553.6C330.545 554.218 331.121 554.726 331.79 555.081C332.458 555.436 333.201 555.629 333.958 555.644H379.863C380.62 555.628 381.363 555.435 382.031 555.08C382.7 554.725 383.277 554.218 383.714 553.6C384.151 552.981 384.438 552.269 384.55 551.52C384.662 550.771 384.597 550.006 384.359 549.287L370.598 504.405Z" fill="#93CE4E"/>
<path d="M373.382 460.94H339.761C338.489 460.94 337.457 461.972 337.457 463.244V465.4C337.457 466.673 338.489 467.704 339.761 467.704H373.382C374.655 467.704 375.686 466.673 375.686 465.4V463.244C375.686 461.972 374.655 460.94 373.382 460.94Z" fill="#F6F6F6" stroke="#263238" stroke-width="1.232" stroke-linecap="round" stroke-linejoin="round"/>
</svg>
