<?xml version="1.0" encoding="UTF-8" standalone="no"?>
<!-- Created with Inkscape (http://www.inkscape.org/) -->

<svg
   width="59.639458mm"
   height="16.470129mm"
   viewBox="0 0 59.639458 16.470129"
   version="1.1"
   id="svg5"
   xml:space="preserve"
   sodipodi:docname="novala-logo.svg"
   inkscape:version="1.2.1 (9c6d41e410, 2022-07-14, custom)"
   xmlns:inkscape="http://www.inkscape.org/namespaces/inkscape"
   xmlns:sodipodi="http://sodipodi.sourceforge.net/DTD/sodipodi-0.dtd"
   xmlns:xlink="http://www.w3.org/1999/xlink"
   xmlns="http://www.w3.org/2000/svg"
   xmlns:svg="http://www.w3.org/2000/svg"><sodipodi:namedview
     id="namedview17"
     pagecolor="#ffffff"
     bordercolor="#666666"
     borderopacity="1.0"
     inkscape:showpageshadow="2"
     inkscape:pageopacity="0.0"
     inkscape:pagecheckerboard="0"
     inkscape:deskcolor="#d1d1d1"
     inkscape:document-units="mm"
     showgrid="false"
     inkscape:zoom="2.3803469"
     inkscape:cx="196.1899"
     inkscape:cy="103.76639"
     inkscape:window-width="956"
     inkscape:window-height="1019"
     inkscape:window-x="960"
     inkscape:window-y="24"
     inkscape:window-maximized="1"
     inkscape:current-layer="layer2" /><defs
     id="defs2"><inkscape:path-effect
       effect="fill_between_many"
       method="originald"
       linkedpaths="#rect279,0,1"
       id="path-effect643" /><clipPath
       clipPathUnits="userSpaceOnUse"
       id="clipPath244"><g
         id="g248"
         transform="translate(4.6272756,200.70211)"><use
           x="0"
           y="0"
           xlink:href="#g2534"
           id="use246" /></g></clipPath><inkscape:path-effect
       effect="fill_between_many"
       method="originald"
       linkedpaths="#rect279,0,1"
       id="path-effect635" /></defs><g
     inkscape:groupmode="layer"
     id="layer2"
     inkscape:label="Layer 1"
     style="display:inline"><path
       style="fill:#93ce4e;fill-opacity:1;fill-rule:evenodd;stroke:none;stroke-width:0.154128;stroke-dasharray:none"
       d="m 14.427026,2.5362793 v 5.0115804 h 3.671611 v 2.5931233 h -3.671611 v 4.642094 h 4.017326 c 3.077758,0 5.555733,-2.477975 5.555733,-5.5557333 V 8.0914958 c 0,-3.0777582 -2.477975,-5.5552165 -5.555733,-5.5552165 z"
       id="path3646" /><path
       style="fill:#016fc1;fill-opacity:1;fill-rule:evenodd;stroke:none;stroke-width:0.154128;stroke-dasharray:none"
       d="m 7.4553589,2.5362793 c -3.0777582,0 -5.5557332,2.4774583 -5.5557332,5.5552165 v 1.1358479 c 0,3.0777583 2.477975,5.5557333 5.5557332,5.5557333 H 11.630298 V 10.140983 H 7.801591 V 7.5478597 h 3.828707 V 2.5362793 Z"
       id="rect1041" /><g
       aria-label="novala"
       id="text5513"
       style="font-size:8.46667px;line-height:1.25;letter-spacing:0px;word-spacing:0px;fill:#016fc1;stroke-width:0.264583"><path
         d="m 28.397435,8.052146 h 1.083734 V 5.5206116 c 0,-1.0244671 -0.575733,-1.6510006 -1.507067,-1.6510006 -0.592667,0 -1.143001,0.2624667 -1.524001,0.7281336 l 0.160867,0.6604002 c 0.270933,-0.2878667 0.6096,-0.4487335 0.9906,-0.4487335 0.524934,0 0.795867,0.2963335 0.795867,0.8551337 z m -2.709334,0 h 1.075267 V 4.6654779 l -0.3048,-0.7281336 h -0.770467 z"
         style="font-weight:bold;font-family:Cantarell;-inkscape-font-specification:'Cantarell Bold'"
         id="path307" /><path
         d="m 32.410638,8.1368127 c 1.295401,0 2.175935,-0.8805337 2.175935,-2.2013343 0,-1.2615338 -0.804334,-2.0828008 -2.048935,-2.0828008 -1.303867,0 -2.167467,0.8805337 -2.167467,2.2098009 0,1.2530672 0.795867,2.0743342 2.040467,2.0743342 z m 0.09313,-0.9059337 c -0.635001,0 -1.041401,-0.4910669 -1.041401,-1.2615339 0,-0.7366003 0.372534,-1.2022671 0.982134,-1.2022671 0.635,0 1.0414,0.4995335 1.0414,1.2700005 0,0.7366003 -0.372533,1.1938005 -0.982133,1.1938005 z"
         style="font-weight:bold;font-family:Cantarell;-inkscape-font-specification:'Cantarell Bold'"
         id="path309" /><path
         d="m 36.567779,8.052146 h 1.066801 l 1.6002,-4.1148017 h -1.083733 l -1.168401,3.5136681 h 0.2794 L 36.152913,3.9373443 h -1.185334 z"
         style="font-weight:bold;font-family:Cantarell;-inkscape-font-specification:'Cantarell Bold'"
         id="path311" /><path
         d="m 42.460579,8.052146 h 0.770467 V 5.5798783 c 0,-1.1091338 -0.635,-1.7272007 -1.845734,-1.7272007 -0.592667,0 -1.219201,0.1524001 -1.701801,0.3979335 l 0.254,0.7535336 c 0.4318,-0.1693334 0.838201,-0.2540001 1.219201,-0.2540001 0.6604,0 1.016,0.2540001 1.016,0.745067 v 1.769534 z m -1.439334,0.084667 c 0.905934,0 1.566334,-0.5164669 1.761067,-1.4054673 L 42.435179,6.5704787 c -0.143933,0.4402668 -0.5588,0.719667 -1.058334,0.719667 -0.414867,0 -0.694267,-0.2116668 -0.694267,-0.5164669 0,-0.3979335 0.4826,-0.5588002 1.667934,-0.5588002 V 5.613745 c -1.905001,0 -2.751668,0.3979335 -2.751668,1.3038672 0,0.7366003 0.558801,1.2192005 1.422401,1.2192005 z"
         style="font-weight:bold;font-family:Cantarell;-inkscape-font-specification:'Cantarell Bold'"
         id="path313" /><path
         d="m 45.525516,8.1198793 c 0.262466,0 0.567266,-0.059267 0.7874,-0.1524 L 46.092782,7.2393456 c -0.09313,0.033867 -0.186266,0.0508 -0.262466,0.0508 -0.254,0 -0.389467,-0.1608668 -0.389467,-0.4487336 V 1.7952768 h -1.066801 v 5.1816021 c 0,0.7112002 0.431801,1.1430004 1.151468,1.1430004 z"
         style="font-weight:bold;font-family:Cantarell;-inkscape-font-specification:'Cantarell Bold'"
         id="path315" /><path
         d="m 49.538719,8.052146 h 0.770467 V 5.5798783 c 0,-1.1091338 -0.635,-1.7272007 -1.845734,-1.7272007 -0.592667,0 -1.2192,0.1524001 -1.701801,0.3979335 l 0.254001,0.7535336 c 0.4318,-0.1693334 0.8382,-0.2540001 1.2192,-0.2540001 0.6604,0 1.016,0.2540001 1.016,0.745067 v 1.769534 z m -1.439334,0.084667 c 0.905934,0 1.566334,-0.5164669 1.761068,-1.4054673 L 49.513319,6.5704787 c -0.143933,0.4402668 -0.5588,0.719667 -1.058334,0.719667 -0.414866,0 -0.694267,-0.2116668 -0.694267,-0.5164669 0,-0.3979335 0.482601,-0.5588002 1.667934,-0.5588002 V 5.613745 c -1.905,0 -2.751667,0.3979335 -2.751667,1.3038672 0,0.7366003 0.5588,1.2192005 1.4224,1.2192005 z"
         style="font-weight:bold;font-family:Cantarell;-inkscape-font-specification:'Cantarell Bold'"
         id="path317" /></g><g
       aria-label="BIOTECH"
       transform="translate(0.61094666,-0.43142639)"
       id="text5655"
       style="font-size:5.64444px;line-height:1.25;letter-spacing:0px;word-spacing:0px;white-space:pre;inline-size:25.1783;display:inline;fill:#016fc1;stroke-width:0.264583"><path
         d="m 25.740403,15.093293 h 1.46191 c 0.948266,0 1.540932,-0.468488 1.540932,-1.20791 0,-0.677333 -0.496711,-1.10631 -1.303866,-1.10631 h -1.241777 v 0.570088 h 1.111955 c 0.417689,0 0.682977,0.248356 0.682977,0.632177 0,0.361245 -0.220133,0.524933 -0.694266,0.524933 h -0.841021 v -2.737553 h 0.524933 c 0.457199,0 0.711199,0.186266 0.711199,0.524933 0,0.276577 -0.180622,0.468488 -0.598311,0.609599 l 0.716844,0.07902 c 0.372533,-0.124178 0.615244,-0.474133 0.615244,-0.874889 0,-0.59831 -0.491066,-0.931332 -1.388532,-0.931332 h -1.298221 z"
         style="font-weight:bold;font-family:Cantarell;-inkscape-font-specification:'Cantarell Bold'"
         id="path320" /><path
         d="m 29.409287,15.093293 h 0.733777 v -3.917241 h -0.733777 z"
         style="font-weight:bold;font-family:Cantarell;-inkscape-font-specification:'Cantarell Bold'"
         id="path322" /><path
         d="m 32.739502,15.144093 c 1.174044,0 1.958621,-0.812799 1.958621,-2.043287 0,-1.185333 -0.761999,-1.975554 -1.902176,-1.975554 -1.162755,0 -1.936043,0.812799 -1.936043,2.037643 0,1.190977 0.75071,1.981198 1.879598,1.981198 z m 0.05644,-0.637822 c -0.7112,0 -1.179688,-0.553155 -1.179688,-1.405465 0,-0.801511 0.445911,-1.337733 1.123243,-1.337733 0.722489,0 1.202266,0.5588 1.202266,1.399822 0,0.812799 -0.457199,1.343376 -1.145821,1.343376 z"
         style="font-weight:bold;font-family:Cantarell;-inkscape-font-specification:'Cantarell Bold'"
         id="path324" /><path
         d="m 36.255988,15.093293 h 0.722488 v -3.27942 h 1.264355 v -0.637821 h -3.239909 v 0.637821 h 1.253066 z"
         style="font-weight:bold;font-family:Cantarell;-inkscape-font-specification:'Cantarell Bold'"
         id="path326" /><path
         d="m 38.750828,15.093293 h 2.635954 V 14.461116 H 39.478961 V 13.41125 h 1.755421 v -0.637822 h -1.755421 v -0.959555 h 1.907821 v -0.637821 h -2.635954 z"
         style="font-weight:bold;font-family:Cantarell;-inkscape-font-specification:'Cantarell Bold'"
         id="path328" /><path
         d="m 43.915487,15.149738 c 0.4064,0 0.846666,-0.09596 1.179688,-0.259645 l -0.163688,-0.530577 c -0.248356,0.09596 -0.570089,0.1524 -0.841022,0.1524 -0.857955,0 -1.394177,-0.5588 -1.394177,-1.439332 0,-0.835378 0.485422,-1.303866 1.30951,-1.303866 0.310445,0 0.666044,0.06209 0.920044,0.163689 l 0.208844,-0.564444 c -0.338666,-0.158045 -0.722488,-0.242711 -1.10631,-0.242711 -1.241777,0 -2.082798,0.818444 -2.082798,2.048932 0,1.185332 0.795866,1.975554 1.969909,1.975554 z"
         style="font-weight:bold;font-family:Cantarell;-inkscape-font-specification:'Cantarell Bold'"
         id="path330" /><path
         d="m 45.761216,15.093293 h 0.733777 v -1.676399 h 1.800576 v 1.676399 h 0.739422 v -3.917241 h -0.739422 v 1.591732 h -1.800576 v -1.591732 h -0.733777 z"
         style="font-weight:bold;font-family:Cantarell;-inkscape-font-specification:'Cantarell Bold'"
         id="path332" /></g></g></svg>
